<?xml version="1.0" encoding="UTF-8"?>
<!DOCTYPE svg PUBLIC "-//W3C//DTD SVG 1.1//EN" "http://www.w3.org/Graphics/SVG/1.1/DTD/svg11.dtd">
<!-- Creator: CorelDRAW -->
<svg xmlns="http://www.w3.org/2000/svg" xml:space="preserve" width="210mm" height="297mm" version="1.1" style="shape-rendering:geometricPrecision; text-rendering:geometricPrecision; image-rendering:optimizeQuality; fill-rule:evenodd; clip-rule:evenodd"
viewBox="0 0 21000 29700"
 xmlns:xlink="http://www.w3.org/1999/xlink"
 xmlns:xodm="http://www.corel.com/coreldraw/odm/2003">
 <defs>
  <style type="text/css">
   <![CDATA[
    .fil0 {fill:#FEFEFE}
   ]]>
  </style>
 </defs>
 <g id="Camada_x0020_1">
  <metadata id="CorelCorpID_0Corel-Layer"/>
  <g id="_2390304236800">
   <path class="fil0" d="M7899.38 25620.18c244.51,30.33 97.28,-40.2 185.13,111.45l-185.13 -111.45zm-1052.31 66.34c55.75,-54 -66.89,-115.87 253.61,-68.72l193.51 77.43c5.85,-10.54 21.29,16.82 31.11,40.54l-478.23 -49.25zm-300.73 -295.69c-146.96,-74.18 -74.49,80.95 -197.36,-324.33 83.55,34.14 141.29,48.7 184.53,110.79 18.2,26.19 88.18,19.85 12.83,213.54zm-471.82 -688.24l203.22 324.1c39.97,129.87 65.12,252.74 15.05,368.55 -116.14,-103.02 -205.04,-440.8 -218.27,-692.65zm6562.89 -2368.94c28.41,27.63 -9.59,-27.57 67.78,69.61 29.61,37.16 32.26,49.23 61.93,91.04 48.96,68.99 48.03,89.72 125.18,131.91 149.06,16.33 217.72,128.72 282.4,227.48 133.29,203.54 36.45,193.18 228.04,328.29l-68.5 123.19c86.86,114.54 105.66,135 137.7,267.74 -185.56,-79.62 -804.31,-1098.52 -834.53,-1239.26zm-158.76 -257.86l158.76 257.86c-104.01,-98.88 28.23,100.04 -108.19,-118.73 -40.54,-65 -29.18,-62.53 -50.57,-139.13zm-102.63 -168.31c41.08,38.55 26.97,13.91 76.26,88.85 56.47,85.8 -22.05,-91.06 26.37,79.46l-102.63 -168.31zm0 0l-134.34 -161.97c117.46,73.74 80.67,-93.8 134.34,161.97zm-121.1 -178.73c-91.49,-66.5 -32.55,-12.25 -108.48,-96.17 -52.29,-57.79 6.45,25.59 -40.48,-79.08l148.96 175.25zm-1467.24 -1855.96c122.7,62.49 39.71,-30.61 157.6,134.18 0.39,0.55 58.86,108.25 71.21,129.25 -145.1,-85.69 -145.59,-83.43 -228.81,-263.43zm3510.92 114.33l-228.7 -304.15c225.39,122.05 43.73,-39.98 174.59,171.79 22.88,37 3.32,36.07 54.11,132.36zm-734.45 -1202.03l-233.94 -208.74c-86.68,-96.62 -85.36,-122.71 -153.14,-252.62 210.23,109.79 250.87,230.28 387.08,461.36zm-675.71 -70c-196.98,-203.59 -359.88,-538.55 -476.74,-837.67 207.18,120.72 198.08,176.64 297.85,410.96 69.42,163 139.51,255.66 178.89,426.71zm-10548.62 -3203.68c-48.92,-72.08 -75.44,-23.5 -31.11,-215.07 22.01,-95.02 40.16,-105.5 79.08,-169.91 79.26,149.12 34.91,265.87 -47.97,384.98zm349.91 425.62c66.22,-246.28 236.52,-406.27 383.05,-589.41 162.57,-203.27 196.43,-348.91 495.66,-458.6 -106.83,288.53 -244.3,282.57 -458.11,545.3 -168.7,207.29 -244.96,407.47 -420.6,502.71zm-251.09 -1325.01c73.62,72.62 29.17,-85.75 85.09,122.53 34.96,130.38 -8.77,242.59 -78.03,327.47l-7.06 -450zm1369.18 -716.84c147.46,140 148.57,181.26 -91.92,294.04l91.92 -294.04zm195.22 111.22c-10.85,-183.48 -44.67,-299.89 7.62,-410.35 31.26,47.09 108.85,170.25 118.88,228.43 28.24,164.05 -57.34,138.79 -126.5,181.92zm-379.52 -548.76c212.82,48.42 173.21,99.09 171.4,330.71 -140.02,-114.31 -59.5,47.54 -150.55,-193.34 -32.15,-85.2 -11.63,-63.09 -20.85,-137.37zm653.27 -225.77c71.03,324.1 246.4,314.01 52.12,517.22 -119.29,-120.55 -139.91,-387.46 -52.12,-517.22zm200.3 -327.07c106.65,102.73 164.11,226.86 189.47,363.46l-98.04 161.19c-86.03,-116.36 -119.23,-348.19 -91.43,-524.65zm112.6 -253.13c144.44,201.56 243.2,198.92 168.64,478.51 -114.48,-123.14 -168.31,-312.57 -168.64,-478.51zm-681.17 53.05l27.74 -57.63 41.79 -201.18c96.46,55.26 40.43,-37.45 92.88,152.7 60.44,99.71 70.26,-147.45 63.26,187.01l-169.59 59.83 -55.36 110.62c-57.69,-57.34 -93.86,129.93 -35.08,-103.56l-66.11 -154.41c11.08,-109.14 35.39,-100.97 64.01,-127.94l36.46 134.56zm4998.39 100.37c-100.92,-81.3 -27.69,40.81 -129.11,-134.13 -14.49,-24.97 -32.92,-120.82 -39.75,-148.73 149.88,106.38 123.36,108.48 168.86,282.86zm-4508.69 -164.56l-68.38 -266.37c63.14,35.41 91.49,-13.88 124.46,127.73 52.62,225.99 -21.44,97.44 -56.08,138.64zm-539.71 -674.17c15.55,16.49 242.47,-121.55 0,195.27 -39.49,-51.72 -27.14,33.53 -34.48,-86.8 -9.15,-149.5 9.22,-50.9 34.48,-108.47zm8861.52 377.2c170.39,-355.58 545.28,-320.78 820.84,-515.9 -37.1,282.19 -242.47,261.12 -820.84,515.9zm-3501 -366.39c291.24,-106.54 83.01,-91.49 431.2,-408.86 -71.31,345 -91.06,285.44 -310.7,452.43l-120.5 -43.57zm-5171.27 -458.38c1.77,117.13 -4.79,43.34 -37.1,89.23 -82.01,-165.05 -64.86,-132.85 -1.94,-229.86 8.61,24.21 38.61,111.85 39.04,140.63zm-1568.25 1285.31c-25.59,168.79 -3.69,168.79 -84.15,282.4 -26.2,-202.39 -48.75,-105.56 44.11,-268.85 -11.47,-469.02 57.19,-934.17 102.13,-1400.89 57.96,-601.37 -160.26,-823.39 -115.03,-1407.56 75.44,73.35 65.84,11.86 114.64,149.06l90.01 1260.27c-23.12,300.61 -56.53,1165.03 -151.71,1385.57zm-343.29 -3006.77c36.5,783.91 63.64,1374.1 39.15,2171.3l135.56 -372.3 34.57 -914.06c184.8,257.75 45.54,507.4 68.82,914.06 57.74,247.99 -26.19,526.09 -93.86,722.92 28.52,505.42 -33.52,1265.28 -105.16,1775.06 -52.28,371.62 26.8,1538.15 -131.75,1756.47 -5.74,-10.58 62.16,-2517.06 54.38,-2862.6l-146.59 -2901.71c-104.33,-172.94 -101.52,-990.38 -79.95,-1250.23 121.04,147.74 134.94,240.7 165.99,463.07 23.1,165.65 33.74,333.85 58.84,498.02zm210.6 104.4c-39.43,-434.29 -156.95,-1017.91 27.58,-1387.61 33.85,529.96 219.64,1097.64 -27.58,1387.61zm5500.22 -919.68c53.27,-42.47 652.55,-312.58 736.98,-349.86 -96,485.9 -63.36,420.93 -197.09,440.12 -62.38,8.95 -411.4,-5.56 -539.89,-90.26zm-3977.12 255.05l91.16 -856.05c24.32,-161.86 99.38,-576.88 150.98,-699.59 34.42,78.14 -84.31,1239.87 -64.3,1554.87 33.15,522.12 62.59,1091.02 43.9,1592.68l-221.74 -1591.91zm322.16 -2079.86c52.22,84.27 61.11,23.1 55.32,178.84 -0.82,21.4 -41.48,88.34 -66.02,108.31l10.7 -287.15zm1208.76 -2344.57c22.22,-240.54 -7.76,-96.17 144.66,-157.6 -58.41,134.33 3.58,105.88 -144.66,157.6zm3187.92 126.96c-3.09,16.6 -5.29,55.04 -5.4,61.98 -1,94.8 -61.7,-31.11 10.92,23.28 148.56,-87.58 172.82,-130.37 376.7,-200.69 112.06,-182.81 129.93,-216.72 401.14,-245.73l1586.35 -69.15c1322.31,-28.23 2468.81,252.57 3580.13,890.18 396.88,227.7 871.97,754.89 1042.76,1194.59 224.28,254.06 435.66,926.13 491.36,1324.34 -572.36,-106.81 -1395.05,-515.9 -1977.23,-505.87 234.1,110.74 494.39,105.17 648.36,158.82 0,0 115.43,53.61 119.55,55.83l78.09 52.93c-311.46,-20.95 -578.1,-65.36 -870.82,-135.34 -482.74,-115.36 -358.12,-50.45 -589.74,-376.15l-670.19 -748.12c-76.65,-68.99 -160.65,-112.88 -256.71,-184.78 -87.73,-60.67 -4.02,0.27 -97.34,-70.43 -8.21,-6.24 -29.61,-9.1 -35.95,-29.46 -6.67,-21.44 -25.09,-20.84 -37.88,-30.99 -680.96,-302.75 -1911.67,-516.17 -2693.43,-597.72 -579.31,-60.4 -589.52,44.78 -977.92,42.12 35.47,-31.15 -47.64,-62.36 156.24,-84.86l-54.7 -15.67c-370.2,-71.97 -477.08,126.17 -649.85,16.66l362.48 -263.88c-238.74,-176.3 -113.71,169.3 -181.49,-63.15 -2.37,-8.09 -13.96,-5.95 -19.85,-10.58l239.88 -281.91c144.32,-116.04 121.43,-121.72 208.07,-284.12l384.54 8.99c-100.7,127.22 -134.11,118.96 -281.46,199.85 -114.55,62.82 -167.55,106.05 -286.61,169.03zm-7266.07 -95.36c14.56,9.06 112.66,59.68 120.67,67.4 44.16,260.57 -83.11,16.99 110.17,298.89l184.59 194.84c16.26,-126.29 -247.84,-518.88 -305.02,-590.12 254.99,102.45 427.93,446.79 518.81,752.47l86.53 126.34 25.82 -15c-19.04,-277.23 -157.07,-491.69 -311.09,-677.15 -504.1,-607.16 -260.29,-249.92 -505.87,-498.36 318.27,-72.74 2946.78,19.64 3381.05,75.16l-17.48 154.52 -24.48 143.66 180.11 -299.99 586.48 25.7c30.1,167.42 53.49,25.86 -46.43,192.68 -281.63,470.24 -830.74,1086.44 -1095.11,1749.02 -220.81,553.29 -261.99,335.85 -329.66,693.87 -2.54,-700.48 1125.6,-2136 1294.73,-2527.26 -259.74,155.61 -559.03,699.53 -738.13,996.93 -116.2,192.97 -211.61,321.51 -330.23,530.68 -61.77,108.87 -108.14,187.28 -170.23,289.25l-111.51 267.52c-87.68,178.28 -41.15,154.02 -182.92,284.1 -215.85,1644.92 -121.82,1125.38 -257.37,1141.6l-15.78 761.03 111.96 5.39c0.87,-4.02 6.61,-5.95 21,-4.4l-123.08 1282.98 -62.65 148.24 39.37 596.64c-1.15,-111.79 26.81,-812.04 141.95,-912.86l108.75 -511.15c29.18,54.38 27.18,2.37 32.82,101.3 6.88,122.1 -86.37,367.56 41.18,830.9 66.68,242.2 183.09,599.45 127.89,841.98l-52.44 82.39c-57.64,-39.43 -124.25,31.93 -107.2,-171.4 18.14,-216.01 12.23,9.93 79.57,-144.54 5.13,-11.8 13.62,-23.43 17.59,-35.52 78.91,-240.37 -90.28,-394.02 -91.38,-395.34 -71.74,264.65 -74.05,527.54 -88.01,821.08 200.74,102.58 63.42,-2.86 174.26,152.65l-35.78 175.25c10.09,69.93 21.94,100.59 50.73,169.58l-30.27 129.26 -97.01 -18.41c-109.63,-123.47 -73.85,191.9 -75.33,-101.42 -106.22,16.43 -68.77,-49.68 -44.72,82.44 190.81,131.97 102.73,53.01 159.37,309.32 100.19,109.52 23.33,-51.06 65.79,115.64 -76.22,49.86 -144.04,-7.6 -232.61,82.11 -53.43,268.96 78.15,303.8 32.81,526.71 69.65,61.27 111.29,-115.86 37.17,162.25l-18.08 187.89c-50.69,140.23 16.54,70.97 -71.64,131.52 -18.91,271.21 94.91,430.42 125.85,707.25l-104.96 92.65c-52.17,141.44 11.43,88.45 -138.52,125.18l-236.74 84.43 53.1 -379.18c-237.24,-48.81 -79.74,98.43 -133.13,-188.28l39.22 -673.13c5.62,-15.77 21.62,-19.34 26.25,-49.29 4.68,-30.55 14.72,-36.51 28.95,-49.14l-15.05 -161.13 -1.71 -70.6 20.18 -259.74 27.19 -110.23 -21.18 -160.53c-151.49,-109.8 -86.7,136.44 -107.26,-100.43 -55.2,734.61 50.07,1493.54 -68.32,2231.68 -115.15,65.18 -72.41,27.02 -165.84,102.46l-70.2 50.13c-7.17,-18.75 -29.55,-36.62 -48.08,-51.18l3.48 -152.37 -1.5 93.41 -52.67 195.67c-78.07,-113.21 -49.18,-68.38 -49.29,-247.06 -127.29,-678.47 142.27,-1242.28 73.56,-1957.87 -64.97,-677.14 203.38,-1156.69 49.03,-1938.68 -74.12,-76.6 23.88,118.06 -48.53,-72.63 -2.43,-6.45 -31.5,-126.06 -32.16,-129.59 -21.12,-115.97 -19.8,-120.5 -13.83,-224.88 35.78,-360.56 34.24,-829.81 -36.63,-1138.95 -69.59,-303.8 -115.75,-645.17 -142.71,-970.36 -58.46,-704.83 104.62,-1323.96 235.36,-1952.7 -82.44,-62.36 9.22,47.21 -73.56,-93.8 -2.31,-3.91 -2.82,-14 -4.25,-25.53 -1.33,-10.26 -2.04,-16.66 2.37,-22.94 -35.68,251.14 -172.28,455.13 -230.61,704.12 -139.2,594.31 -99.66,2075.82 -149.07,2777.18 -412.27,-999.54 180.82,-3131.89 -1119.42,-4409.48 -197.48,-194.05 -346,-219.14 -400.04,-318.85 -82.22,120.11 40.26,153.2 -165.44,97.61 -203.76,-55.14 -84.65,-70.64 -129.97,-134.84 -563.89,-125.34 -748.57,-71.03 -1012.34,-251.3 105.22,-106.48 12.41,-47.25 189.6,-66.01 70.2,-7.45 27.79,17.1 171.72,-9.43 693.86,-127.66 1215.49,266.52 1603.83,780.43l385.15 511.49c23.22,-252.08 -141.9,-332.7 -204.32,-533.15 -100.43,-65.8 -89.28,-54.44 -165.82,-146.75 -2.49,-2.97 -60.78,-80.9 -66.4,-88.57l-46.49 -69.59c-172.11,-182.93 -400.03,-303.14 -604.96,-493.79 390.99,-10.92 557.53,130.38 666.5,370.03zm1367.04 11092.76c-5.52,152.25 -3.87,43.13 46.64,91.04 102.63,-179.61 98.22,-125.78 240.84,-268.78 110.78,-111.12 138.91,-194.5 244.84,-314.06 152.1,-171.78 459.92,-367.87 560.9,-538.94 -81.4,-108.54 -73.12,-79.98 24.87,-206.81l99.65 105.62c125.3,-58.96 507.9,-349.03 637.95,-469.43 190.75,-176.67 390.04,-351.11 579.03,-587.63 189.7,-237.47 761.58,-1231.26 458.38,-1598.98 -145.31,370.64 10.09,602.36 -295.59,1152.07 -251.14,451.48 -382.99,489.38 -651.5,776.46 615.28,-804.63 723.47,-1231.92 735.48,-2522.74l-15.81 -242.76c-18.26,-147.35 -4.58,-127.93 -9.06,-255.26 -1.38,-38.83 -32.31,-147.2 -10.03,-147.9 -57.34,176.3 -20.67,216.28 -30.94,395.77l-87.79 334.75c-89.77,-526.82 -32.2,-1053.35 206.91,-1432.77l271.66 -158.2c641.85,-930.55 385.03,-466.88 729.59,-881.65 254.88,-306.83 658.29,-607.71 768.58,-853.66 -376.39,172.33 -965.18,914.99 -1166.03,1029.09 174.77,-325.91 964.85,-1181.3 1380.21,-1307.03 368.06,932.36 -133.18,704 -93.8,1144.02 626.96,225.44 1165.08,-77.32 1664.1,463.83 385.86,418.35 83.33,629.28 923.65,1246.33 -3.07,261.27 -97.88,386.3 -170.45,581.35 -7.27,-18.86 -7.72,-46.71 -16.27,-94.85l-25.09 -128c-144.6,91.81 -401.97,567.4 -471.62,729.26 -230.57,161.36 -615.98,173.27 -727.22,430.75 -148.4,343.73 164.23,688.02 376.54,795.93 720.11,366.18 1227.29,-166.48 1710.11,-442.1 563.15,-321.4 1248.51,-1325.08 2205.42,-1451.31 407.54,-53.76 771.94,59.46 799.91,410.18 -102.75,58.08 -241.17,61.77 -375.61,118.24 -318.03,133.51 -683.82,451.48 -880.75,693.64 -159.93,196.66 -332.48,353.65 -469.52,543.68 -180.49,250.15 -236.35,422.37 -428,616.21 -41.41,88.24 -7.48,30.78 -62.36,106 -4.47,6.18 -23.72,33.25 -27.24,25.37 -3.48,-7.84 -19.52,14.66 -29.01,22.32 -14.06,30.94 -51.23,113.01 -66.84,135.12 -54.43,77.2 -40.2,42.74 -83.44,77.86 -69.48,233.66 -50.29,103.19 -105.33,139.31 -28.51,73.89 -23.05,78.91 -64.46,139.13 -45.17,65.57 -49.31,47.27 -76.77,69.05 -144.86,392.48 -278.93,396.17 -575.73,601.82 14.34,143.81 47.87,116.9 -91.87,90.16 -361.88,151.32 -124.47,390.38 -1342.27,422.7 10.64,-8.77 24.15,-21.02 31.87,-26.48 7.51,-5.23 22.06,-18.92 31.54,-25.03l180.5 -87.41c128.28,-47.86 120.23,-42.63 249.26,-58.79l386.58 -194.71c457.33,-475.71 436.1,-187.84 767.1,-814.35 -534.71,282.51 148.45,235.3 -1945.69,1187.74 -451.54,205.37 -2657.4,161.97 -4613.35,1677.5 -116.31,90.07 -152.15,150.83 -264.21,241.77 -487.33,395.35 -840.48,801.83 -1160.34,1527.89 -231,524.56 -397.5,1033.17 -487.55,1650.22 -47.43,324.97 -51.45,654.86 -77.04,987.17 -55.32,717.96 -65.68,400.2 -368.66,279.48 -42.51,990.82 56.31,2243.04 -444.48,2958.13 -361.32,515.89 -1665.1,453.47 -1872.94,662.97 -81.84,82.44 -101.75,196.87 -101.42,313.35 0.5,178.17 47.75,152.64 223.35,169.3 1220.56,115.36 3198.45,-209.24 4926.58,-167.71 311.08,7.51 612.79,20.85 1143.51,66.13 335.36,5.62 30.72,0.43 1594.9,62.26 580.32,24.91 1130.56,49.68 1718.26,37.99l-102.18 -491.86c-2082.06,-268.62 -2503.05,-668.71 -2566.81,-2495.94 -58.56,-1679.1 156.18,-3284.91 176.26,-4925.59 792.13,-43.61 2198.09,-126.23 2763.17,297.41 195.55,146.59 1803.08,2122.87 2118.91,2495.94 216.49,255.72 429.37,601.76 642.13,880.03 455.5,595.69 792.55,1277.31 1264.51,1829.5 137.43,160.8 209.06,265.26 332.59,427.82 260.56,342.85 826.25,821.63 1159.12,1121.95 1673.65,1510.03 2250.26,1432.84 4667.78,1483.07l1159.52 -169.13c421.7,-123.71 884.66,-141.01 1313.92,-259.2 104.55,-583.29 -18.42,-420.77 -549.32,-439.4 -952.6,-33.53 -1399.73,-499.91 -2298.74,-1155.05 -184.08,-134.11 -480.04,-365.19 -617.9,-497.76 -713.67,-685.9 -920.3,-683.7 -1675.75,-1772.02l-2913.01 -3933c-137.98,-198.64 -77.21,-144.04 -271.21,-287.87 -147.02,-109.09 -165.55,-160.59 -303.48,-253.68 -261.22,-176.41 -490.14,-249.92 -778.61,-381.12 194.22,-130.96 673.67,-260.56 932.25,-361.92 2209.68,-866.25 4071.6,-2406.44 4545.91,-4999.27 295.14,-1613.59 -106.05,-4558.69 -938.99,-5625.74 -110.45,-141.44 -205.3,-209.71 -322.55,-336.17 -133.01,-143.37 -196.15,-278.27 -302.92,-408.02 -310.04,-376.88 -956.57,-979.52 -1669.57,-1101.94l803.55 650.94c259.84,221.42 478.07,490.7 677.47,741.4 511.05,642.29 730.15,853.66 998.16,1840.58 596.63,2196.87 713.99,4990.87 -908.1,6796.49 -906.72,1009.34 -2135.61,1725.2 -3439,2239.89 -326.81,129.04 -763.78,235.2 -1129.96,292.72 -258.36,40.58 -1067.47,122.81 -1223.92,221.86 1271.08,475.24 644.77,-78.75 1210.25,962.69 86.53,159.37 304.85,604.14 396.34,667.43l75.87 -33.79c-20.73,-167.6 42.7,4.74 -63.96,-182.98l-272.92 -486.28c-96.4,-178.52 -301.83,-522.24 -354.37,-674.78 227.91,39.65 151.65,32.1 237.13,288.52 89.33,267.86 768.63,1249.63 961.31,1573.73 112.29,188.76 214.91,440.01 328.29,651.56 16.11,5.17 88.67,47.91 98.66,34.79 5.4,-7.06 14.12,12.63 17.31,21.13 -14.78,-37.51 -46.37,-102.96 -45.38,-140.85 4.08,-151.65 -14.51,-12.35 53.94,-108.37 141.94,274.25 510.37,700.64 608.31,986.14 76.71,51.67 28.41,-31.49 133.35,104.67 62.42,80.95 34.13,74.22 47.15,138.8 115.31,35.95 53.21,-11.96 121.77,96.67 86.8,137.44 -4.09,-13.29 35.17,135.94 28.24,19.69 17.21,-0.33 69.5,62.59 84.7,102.03 -35.58,-96.62 30.1,66.73l121.82 109.24c114.81,80.97 8.82,-66.17 137.82,146.15 9.31,15.38 41.08,86.62 66.77,133.39 44.78,81.41 115.93,267.96 212.93,144.27 -88.29,-274.8 -259.58,-443.44 -420.05,-652.39 -143.99,-187.45 -285,-414.7 -448.13,-617.87 -230.95,-287.64 -625.09,-909.53 -810.43,-1284.03 -105,-40.75 -15.67,30.22 -128.06,-110.56 -62.81,-78.65 -34.3,-55.15 -119.78,-137.49 -137.64,-132.57 -154.52,-118.22 -238.33,-284.28 -160.82,-236.58 -762.47,-1084.02 -813.03,-1344.09 212.65,20.03 180.16,63.1 281.35,273.58 157.34,327.25 459.76,720.01 570.44,985.31 116.97,84.33 -10.48,-63.64 115.32,107.04 43.17,58.57 34.36,69.82 71.13,132.9 44.56,76.16 55.47,157.67 210.56,173.77 -194.62,-491.35 -704.66,-1067.41 -897.18,-1624.57 208.62,72.31 263.49,76.11 359.1,304.48l663.97 1280.49c97.89,99.55 81.74,92.26 174.27,162.24 6.23,4.75 87.29,59.13 89.66,61.21 84.7,76.77 3.48,-20.22 70.7,99.83 69.16,141.94 263.28,354.31 355.31,489.7 750.44,1103.59 288.63,411.12 887.31,1141.2 87.03,106.1 36.01,111.67 167.21,210.56l133.12 15.27c-312.08,-342.52 -586.05,-737.65 -859.13,-1135.25 -134.28,-63.52 -80.95,-16.43 -153.75,-109.14 -130.58,-166.32 -41.08,-55.92 -87.51,-188.98 -202.56,-338.99 -625.1,-618.52 -730.14,-1040.84l-75.56 -153.64c122.87,114.21 43.24,-143.27 113.5,168.48 99.75,57.29 72.23,55.2 149.11,127.27 31.82,29.9 43.07,43.78 77.26,71.26 77.48,62.2 14.23,22.82 85.03,53.32l-646.64 -1246.43c379.12,161.08 718.12,1069.25 908.71,1357.61 111.28,168.41 204.26,275.62 321.82,439.62 464.39,647.47 702.02,1260.22 1304.95,1772.58 -93.04,-294.48 -327.91,-594.98 -482.2,-860.51l-139.86 -182.31c-41.91,-76.61 -77.37,-136.87 -112.99,-196.33 -267.79,-332.48 -9.32,-152.64 -145.97,-398.7 -138.81,-249.92 -604.53,-616.82 -821.64,-1137.23l219.93 217.54c206.64,268.69 1060.79,1375.19 1113.95,1588.88l165.73 230.19c113.65,14.89 63.69,-13.67 148.67,46.49 73.9,52.34 25.26,34.02 83.33,112.29l1355.55 1845.91c141.63,176.42 228.59,195.16 326.42,526.98 12.79,5.52 29.78,12.52 38.49,16.39 8.56,3.8 27.52,11.24 37.88,16.04l191.2 116.91c407.81,395.63 426.06,205.04 549.38,536.52 222.79,124.64 320.11,335.96 564.25,529.03 349.69,276.45 774.92,504.7 1235.68,897.45l609.64 505.48c-403.46,-18.48 -548.88,-70.98 -884.39,-114.26 120.61,66.11 423.65,209.55 509.79,273.47 -285.83,-7.61 -519.26,-88.07 -670.76,-264.7l-164.94 76.98 231.33 167.53c-587.14,35.14 -1395.91,-125.35 -1914.03,-91.09l-151.43 -1.89c-244.24,-61.93 -450.1,-117.29 -667.6,-171.5 226.49,228.63 710.4,335.57 1043.6,374.17l379.3 87.58c-758.94,-7.39 -1792.33,-395.41 -2292.79,-776.69 -356.02,-271.27 -1510.84,-1170.16 -1583.2,-1422.29 -224.77,-118.73 -478.35,-317.98 -575.24,-564.54 171.52,45.89 47.76,-16.99 158.72,85.21 32.03,29.44 31.82,64.01 46.87,89.77 -59.95,-87.84 -82.83,-122.32 -147.51,-194.77 -167.65,-187.77 -96.23,-30.51 -136.99,-320.19 202.61,61.21 212.59,-27.18 172.61,114.37 -7.11,-35.73 -14.95,-101.24 -23.49,-163.06 -51.68,-35.02 -47.54,106.65 -96.73,-152.75 -32.76,-30.12 -33.04,-23.34 -76.44,-87.25 -78.3,-115.25 57.09,180.23 -31.32,-82.72l-2009.71 -2534.26c-183.03,-278.83 -425.45,-661.77 -562.94,-942.8 -214.62,-80.34 -170.39,-26.58 -216.78,-216.77 -89.89,-170.25 -735.33,-1070.35 -860.94,-1161.95 45.21,310.04 360.27,718.84 514.4,962.71 147.02,232.49 518,707.19 585.99,904.34 -8.28,-5.18 -20.12,-25.59 -22.82,-18.36l-460.31 -531.45c-143.34,-196.93 -319.14,-490.58 -460.04,-657.24 -369.43,-436.82 -710.9,-837.18 -1299.87,-937.1 -1029.25,-174.54 -2980.51,-153.65 -3774.56,489.7l1035.7 -110.4 -26.19 430.36 4.63 423.91 95.57 -253.17c61.54,456.38 86.8,799.18 -33.7,1241.62 -57.12,209.61 12.14,889.56 -31.54,1199.55 -92.42,541.81 -89.77,1614.58 -63.08,2183.48 33.08,704.06 187.39,1338.07 300.27,2000.67l-218.44 -61.27 -117.41 35.18c-143.32,71.96 -923.92,-73.46 -1198.06,-82.39 -444.48,-14.56 -972.67,8.87 -1420.02,30.61 -493.78,23.99 -1514.33,40.58 -1972.81,161.91l-560.24 147.13 -889.07 126.01c303.96,-285.88 1367.29,-117.52 1768.39,-714.76 436.59,-650.12 434,-1722.56 526.75,-1877.02 104.73,159.69 22.07,190.26 -13.84,418.34 -123.36,783.51 51.23,308.1 -259.47,1475.89 358.07,-102.69 366.02,-1301.9 370.37,-1705.31 174.21,140.97 311.64,398.28 454.24,570.67 152.76,184.74 365.58,456.77 532.66,546.45 -292.11,-778.46 -458.81,-663.91 -646.31,-2013.14 -210.89,-1517.91 263.32,-2958.44 1108.45,-4116.53 235.59,-322.89 325.25,-472.65 594.92,-724.24 1247.92,-1164.14 2413.32,-1090.13 3913.37,-1409.06 379.4,-80.62 883.5,-41.46 1306.53,-76.92 1216.11,-101.81 3233.81,-678.03 4115.11,-1198.51 1018.61,-601.53 1840.68,-1645.68 2450.71,-2823.17 643.62,-1242.3 855.65,-3023.85 469.91,-4512.11 -355.7,-1372.32 -1034.01,-2445.2 -2431.36,-2900.2 -3115.63,-1014.61 -2738.04,-292.12 -4669.33,-450 149.35,-367.11 374.73,-594.92 570.38,-822.74l-21.67 -20.51c-371.52,116.46 -1274.65,957.06 -1515.26,1260.04 -347.64,437.69 -747.63,1282.99 -792.41,2004.3 459.16,-500.67 -223.56,-624.65 1369.35,-771 1128.41,-103.62 2668.54,196.71 3566.27,802.44 782.38,527.86 855.55,1096.1 996.35,1174.74 717.46,117.07 2275.67,190.8 2802.93,553.29 119.73,1421.07 -311.13,3339.29 -1177.71,4422.7 -116.2,145.21 -296.3,283.94 -401.3,408.47 -401.08,475.74 -1081.37,1148.71 -1751.62,1494.92 -568.57,293.59 -1819.08,712.83 -2525.06,785.67 498.36,-564.43 583.5,-454.19 1214.61,-1386.83l367.55 -494.34c503.54,-573.08 2426.06,24.71 2667.17,-868.72 -753.8,131.47 -1200.21,269.62 -2035.42,203.05 721.39,-651.55 1342.83,-237.52 1520.12,-938.22 76.83,-303.57 -398.82,-1179.41 -1463.75,-954.52 -744.76,157.32 -1133.1,479.34 -1653.24,832.66 -572.03,388.45 -985.25,944.05 -1617.73,929.16l-192.85 -241.7c303.8,-262.77 589.69,-326.7 781.04,-704.23 99.44,-196.32 98.45,-320.35 218.55,-539.66 381.5,-696.95 -213.53,-355.2 -680.39,-1388.55 -168.82,-373.66 -341.64,-678.18 -692.76,-817.92 38.94,-231.02 131.47,-550.15 107.7,-775.7 -455.51,-73.89 -601.38,237.07 -1028.43,249.82l-197.15 -987.68c-733.95,-170.95 -1759.56,1185.37 -2115.76,1749.96 -275.12,436.1 -547.66,628.91 -670.47,1301.02 -119.5,653.72 124.47,1321.15 38.21,1822.6 -727.22,-593.87 -768.52,-3323.86 -645.59,-4447.08 221.96,-2028.79 1442.41,-3107.13 1656.72,-3537.05 -529.36,-327.02 -5824.27,-321.94 -6739.38,-226.37 -199.52,1169.87 812.99,408.19 1666.98,1051.65 934.4,704 715.58,2084.42 721.98,3220.06 3.69,661.54 33.15,1254.09 85.37,1888.71l152.2 3841.96c-47.1,1272.73 -254.72,2472.56 -277.32,3765.15 115.25,-147.14 148.4,-336.56 235.08,-539.89 159.04,-373.06 521.64,-1186.65 802.43,-1476.88l77.22 -67.67z"/>
   <path class="fil0" d="M2997.55 8112.05c94.46,90.94 50.4,35.68 107.43,149.61 16.93,33.81 70.37,151.49 80.19,212.1 17.58,107.86 -16.28,304.85 -14.18,437.3 44.18,474.71 101.36,679.31 64.07,1227.85 -250.07,-189.81 -52.21,-575.29 -188.98,-851.64 -233.43,429.16 -112.99,1996.98 -146.9,2636.62 -48.05,906.79 -147.74,1790.73 -203.6,2687.19l-3.48 152.37c18.53,14.56 40.91,32.43 48.08,51.18l70.2 -50.13c-44.28,-167.65 227.71,-3192.22 263.94,-3648.12 73.13,579.76 -4.24,794.01 -29.78,1313.98 20.56,236.87 -44.23,-9.37 107.26,100.43 -14.68,-221.26 -42.19,-528.15 12.23,-690.82l142.34 844.56 -60.11 155.13c-20.84,266.64 24.71,156.51 -120.65,221.63l1.71 70.6c101.74,59.17 127.6,135.88 124.52,362.09l-111.84 421.71 2.37 -622.67c-14.23,12.63 -24.27,18.59 -28.95,49.14 -4.63,29.95 -20.63,33.52 -26.25,49.29l-39.22 673.13c53.39,286.71 -104.11,139.47 133.13,188.28 137.71,-10.27 136.66,145.79 183.64,294.75 149.95,-36.73 86.35,16.26 138.52,-125.18 -151.04,-73.52 -94.13,28.06 -100.41,-368.6 -0.78,-48.81 -17.15,-178.51 -15.28,-206.31 20.02,-298.51 24.77,-153.53 94.8,-224.99 88.18,-60.55 20.95,8.71 71.64,-131.52 -151.1,-48.59 -106.44,88.51 -95.08,-96.46 8.77,-143.78 21.17,-62.42 113.16,-91.43 74.12,-278.11 32.48,-100.98 -37.17,-162.25 -81.23,94.74 59.45,130.38 -99.7,65.47l-10.75 -647.1c-16.39,89.94 1.81,5.63 77.64,54.92 88.57,-89.71 156.39,-32.25 232.61,-82.11 -42.46,-166.7 34.4,-6.12 -65.79,-115.64 -172.01,7.72 -150.21,-161.03 -159.37,-309.32 -24.05,-132.12 -61.5,-66.01 44.72,-82.44 1.48,293.32 -34.3,-22.05 75.33,101.42 -28.74,-202.73 -70.53,-165.06 127.28,-110.85 -28.79,-68.99 -40.64,-99.65 -50.73,-169.58 -189.16,142.06 11.24,45.93 -203.78,96.02l-3.47 -1843.62c-115.14,100.82 -143.1,801.07 -141.95,912.86l39.05 393.13c-98.16,-219.43 -274.25,-912.4 -228.97,-1180.24 22.78,23.98 18.03,21.55 48.48,61.54 7.22,9.47 35.95,50.13 44.33,60.82l57.74 68.11 62.65 -148.24c-47.31,-498.03 14.72,-674.17 52.34,-1131.83l-74.73 -2.14c-16.06,0.21 14.33,211.86 -47.54,2.42 -2.31,-7.83 -16.33,2.48 -25.8,-0.23l-15.01 -761.01 -69.98 -348.7c-47.48,288.25 57.79,66.4 -112.33,188.32l-10.48 -323.65 0.21 -316.59 -79.35 539.44z"/>
   <path class="fil0" d="M12240.41 21255.77c217.12,51.55 165.77,60.65 428.21,404.77l-78.36 63.58c138.09,344.5 661.92,833.37 747.4,1137.4 45.61,40.76 25.04,8.05 81.39,90.32 55.38,80.8 -6.61,-39.14 26.37,79.65l96.73 152.75c63.96,39.76 38.99,-107.49 108.97,152.21l70.64 77.08c202.77,236.31 736.54,616.16 865.2,754.52l889.73 864.59c216.83,82.39 134.39,54.33 298.18,167.87 92.04,63.85 94.41,41.31 164.33,87.07 130.92,85.82 93.1,82.68 141.01,157.34 -237.01,-32.04 -46.53,8.99 -215.01,-52.44 191.58,70.8 418.67,196.31 647.26,296.63l655.41 357.07 151.43 1.89c-211.09,-222.41 -1332.39,-743.38 -1737.78,-1251.89 -249.65,-313.19 -494.16,-306.83 -423.19,-505.53l-104.28 -167.81 -72.14 -74.84 16.94 -107.2c-127.23,-191.76 -236.75,-159.21 -377.38,-405.33 -266.62,-120.5 -106.04,-80.56 -260.28,-257.1 -172.28,-197.14 -139.92,-74.66 -268.08,-349.68 -59.61,-14.18 -14.17,14.83 -82.71,-60.61 -13.34,-14.66 -46.26,-62.75 -63.2,-86.41 -68.93,-96.12 -71.03,-112.88 -144.98,-192.68l-236.85 -190.32 671.63 1055.24c82.83,134.5 62.75,159.64 158.82,297.29 200.63,287.54 206.79,-4.14 599.1,592.12 -257.69,-79.76 -285.98,-220.42 -582.28,-457.89 -302.53,-242.48 -1080.27,-1382.42 -1330.42,-1762.6 -207.4,-315.27 -329.12,-569.33 -477.57,-867.95 -97.6,-60.77 -31.93,4.74 -126.84,-101.25 -85.91,-95.9 -9.43,-16.98 -68.1,-108.31 -270.27,-78.96 -419.17,-426.12 -608.6,-682.5 -507.02,-686.13 -1346.02,-2225.21 -1609.9,-2405.99 128.55,545.57 1320.76,2375.06 1739.05,2934.41 107.82,144.21 220.38,229.35 310.15,364.53z"/>
   <path class="fil0" d="M9153.19 5295.71c189.87,-129.81 562.06,-87.4 836.96,-122.65 349.69,-44.78 498.75,-148.5 916.15,-38.1 -110.78,63.92 -1607.14,185.13 -1753.11,160.75zm-340.14 153.03l54.7 15.67 1025.73 -95.08c32.31,225.44 1.32,-207.74 -10.76,61.21 -6.06,135.78 -71.9,-87.91 10.76,68.93 787.94,-42.9 957.18,82.34 1634.55,177.25 598.67,83.87 668.98,241.15 1033.5,339.81 80.95,21.9 88.85,31.54 171.06,22.67 219.37,-23.77 81.84,-0.66 159.1,-62.1l-707.47 -276.83c431.35,19.91 633.79,205.64 821.13,82 -331.66,-67.01 -663.81,-180 -1069.36,-259.68 -200.33,-39.38 -989.81,-148.19 -1075.8,-208.13l1273.67 91.21c-303.3,-286.77 -902.41,-231.06 -1024.62,-273.41l1160.84 149.72c611.63,150.05 709.35,90.98 976.09,189.49 597.3,220.46 1389.42,763.56 1731.27,871.86 -241.03,-279.04 -665.89,-532.94 -1107.06,-728.48 -850.91,-377.26 -698.38,-226.88 -1025.56,-342.41 -1590.32,-561.4 -3062.57,-186.07 -3530.22,-225.23 117.58,-15.59 1512.73,-206.63 1541.24,-223.72 -597.68,-225.66 -1933.49,184.68 -2192.41,405.76l165.12 48.15c42.17,7.89 133.06,11.25 186.72,17.48 -45.56,45.55 -44.06,36.63 -99.87,78.86l-102.35 75z"/>
   <path class="fil0" d="M17186.4 24906.74c-251.41,6.01 -391.71,-152.91 -531.34,-319.02 -137.31,-163.24 -304.24,-331.98 -384.2,-562.28 304.35,130.98 107.1,214.36 677.91,672.24l237.63 209.06zm-2806.91 -3482.35c61.17,119.51 180,240.66 263.06,356.09 110.35,153.37 132.34,194.5 202.88,348.69 105.55,230.51 329.94,461.86 449.17,710.34l873.46 971.42c-209.22,-70.21 -243.79,-96.89 -425.5,-343.46l-112.66 -140.62c-182.76,-247.28 21.99,-125.79 -208.8,-245.08 96.95,129.32 74.79,49.09 87.97,236.91 -194.89,-268.78 -130.37,76.22 -387.68,-491.46 -85.05,-40.48 -64.48,-52.17 -131.25,-124.19 -48.53,-52.28 -95.84,-96.34 -150.06,-155.3 -94.3,-102.45 -175.15,-233.21 -277.5,-282.39l-121.38 -32.1 -3.53 -35.08c24.21,136.87 71.86,172.22 158.66,289.19 91.27,122.97 104.94,124.3 137.15,241.7 101.2,59.9 17.65,-9.8 127.55,100.31l364.13 397.5c101.48,129.87 151.38,124.08 243.31,263.5 92.15,139.68 95.3,176.9 205.26,296.52l290.57 249.2c99.54,197.11 1666.42,1437.25 1920.43,1603.68 190.36,124.73 271.81,84.54 431.25,170.12 93.36,50.12 153.52,182.98 372.89,180.77 -50.89,-14.61 -99.42,-37 -123.53,-114.82 -232.66,-86.51 -558.35,-315.37 -749.93,-473.32l-629.01 -495.77 263.66 88.79 -1121.35 -1306.65c-109.3,-36.83 -105.55,-31.59 -199.75,-95.12l-10.85 -164.17c-86.7,-162.85 -382.94,-491.3 -545.57,-701.96 -166.6,-215.85 -322.72,-446.19 -477.01,-710.67l-74.18 98.37c-205.04,-226.55 -100.26,11.74 -234.81,-352.28 -58.8,-104.94 -198.53,-280.42 -264.82,-369.69 -109.53,-147.69 -148.18,-258.71 -259.25,-393.87 -76.98,80.63 -110.4,-106.77 -52.77,103.23 71.3,60.84 40.31,-3.3 112.11,140.47 46.83,93.7 26.86,54.15 57.68,181.2z"/>
   <path class="fil0" d="M5102.23 21619.79c-186.57,-621.84 -56.74,-2163.02 -229.41,-2589.53 -72.8,83.83 -69.61,242.53 -68.44,344.77 10.03,871.55 67.88,1872.63 193.18,2722 72.95,494.49 74.22,1000.8 152.31,1461.71 38.61,227.87 98.54,428.05 160.59,654.92 30.27,110.74 54.42,190.31 95.84,306.39l103.13 214.86c93.31,119.84 -20.02,5.18 98.27,97.22 -97,-566.08 -445.37,-1356.22 -382.33,-1912.87 134.4,245.01 190.69,666.51 260.34,968.42l175.6 731.15c6.94,27.24 26.58,99.65 37.94,121.43 65.72,126.01 20.84,66.34 121.76,147.56 -99.77,-734.22 -528.91,-2275.61 -567.74,-2870.05l-82.56 -3140.81c-31.59,-124.97 -15.82,-67.78 -49.18,-123.49l-19.3 2866.32z"/>
   <path class="fil0" d="M12826.62 16294.38c59.95,-77.21 -88.62,-4.63 112.45,-107.1 47.58,-24.26 158.82,-45.17 211.81,-56.85l-123.96 97.61c-84.82,45.77 -108.6,46.1 -200.3,66.34zm324.26 -163.95c130.7,-92.37 319.52,-217.16 508.23,-257.31 -9.93,9.82 -24.38,11.53 -29.67,29.71l-195.55 124.42c-94.3,46.44 -173.6,80.13 -283.01,103.18zm508.23 -257.31l69.38 -65.57c24.09,-20.14 62.42,-47.99 84.26,-64.14 285.55,-210.76 1095.99,-688.51 1412.03,-1025.29l552.24 -561.82c74.84,-79.09 54.21,-71.42 112.38,-141.19l104.46 -92.65c3.91,-14.78 21.45,-9.64 32.14,-14.55 -77.58,173.88 -358.94,501.07 -475.63,630 -177.63,196.37 -341.52,296.57 -557.7,505.58 -120.66,116.68 -1128.75,798.42 -1333.56,829.63zm2366.89 -1965.21l271.6 -326.74c-48.42,79.3 -92.54,154.68 -128.7,204.75 -101.86,140.95 -27.48,68.88 -142.9,121.99zm-3199.38 2386.47l-531.51 296.97c889.74,-137.04 2737.32,-1318.89 3461,-2101.25 177.92,-192.36 684,-805.97 754.46,-1116.79l-53.26 26.15c-3.15,-12.75 -22.94,17.81 -33.09,28.06l81.96 -169.57c35.62,62.47 11.35,3.87 94.79,33.09 122.97,-172.94 235.41,-403.68 274.4,-641.64 -130.96,124.42 -116.36,102.53 -200.01,288.37 -151.55,31.99 119.56,28.18 -41.86,-8.43l-58.23 -12.64c-385.26,504.6 -419.72,686.31 -955.19,1233.24 -737.37,753.14 -1530.6,1365.05 -2508.52,1852.17l-1406.84 703.11c490.97,-63.7 880.3,-374.67 1121.9,-410.84z"/>
   <path class="fil0" d="M2888.7 5985.98c352.66,277.88 -301.06,-106.76 132.9,3.97 -109.2,167.05 -102.86,92.54 -133.62,304.3 -130.1,231.01 70.8,-136.71 -70.43,0.05l-63.52 129.98c-85.7,379.19 14.11,606.12 -54.99,876.18 -257.04,1004.99 -75.99,809.44 5.74,1734.58 4.25,47.87 -29.17,653.87 90.94,851.74l-100.43 -1927.76c-5.68,-106.99 -14.84,-247 -9.47,-351.57 13.01,-253.61 53.65,-221.51 129.09,-273.79 75.5,451.04 -128.82,1406.89 67,1755.2 87.29,-826.7 34.46,-1840.62 389.78,-2619.02 111.67,-244.63 242.92,-407.05 361.1,-651.35 -3.42,-153.8 41.41,-125.51 -92.43,-125.51 -49.8,195.55 -93.69,377.37 -247.82,502.5l-113.83 83.67c-182.64,211.36 -113.22,889.77 -279.76,1140.43 -112.28,-1094.12 304.13,-1291.26 492.35,-2184.36 -9.59,-107.98 13.84,-19.58 -50.52,68.09 -40.25,54.93 -96.11,113.5 -118.06,148.73 -102.57,164.79 -12.8,173.33 -195.38,359.18l414.42 -927.46c68.27,-160.92 98.44,-114.76 16.1,-248.11 -147.12,191.53 -538.73,1021.55 -569.16,1350.33z"/>
   <path class="fil0" d="M12270.85 20192.75l202.78 302.1zm-202.78 -302.1l-113.99 -179.01c11.59,11.04 28.35,23.72 35.8,32.04 7.05,7.9 24.59,23.67 32.04,32.44l46.15 114.53zm-361.21 -527.26c80.56,62.77 18.86,-11.57 116.86,117.47 33.58,44.17 34.13,64.02 39.42,113.28l-156.28 -230.75zm0 0c-227.32,-252.17 -1045.58,-1848.62 -1239.2,-1945.57l936.28 1747.98c121.98,48.86 20.3,-46.2 124.46,101.81 74.79,106.26 8.23,29.77 38.89,117.13 29.72,24.27 29.66,16.49 74.11,77.04 83.94,114.16 -40.2,-118.13 32.59,78.86l95.41 93.96c67,82.62 59.23,81.68 99.26,153.2 186.57,333.32 396.34,601.22 539.94,930.94 102.13,234.6 408.58,557.36 640.53,831.77 54.81,64.91 57.85,64.58 119.78,133.96l121.82 129.59c-56.69,-128.44 -24.43,-45.89 -45.23,-139.14 -33.02,-147.84 39.16,81.68 -22.6,-107.08 -127.83,-114 -81.68,-74.24 -230.02,-153.48l29.51 -110.58c-121.21,-116.14 -98.83,-46.64 -150.5,-201.5 -179.33,-114.37 -202.66,-224.66 -333.97,-417.29 -140.78,-206.64 -181.82,-249.16 -267.07,-492.24l262.5 253.5c101.3,102.08 -32.16,28.46 124.02,78.09 -111.46,-201.66 -261.9,-312.12 -504.26,-764.44l-1321.38 -2228.97c-143.87,-217.29 -9.7,-99.49 -190.09,-187.23 72.53,373.57 859.97,1562.59 1065.22,2019.69z"/>
   <path class="fil0" d="M18855.37 25258.92l161.52 91.87c-213.96,-46.22 -133.56,-62.1 -161.52,-91.87zm0 0c-210.56,-55.93 -118.24,-66.68 -139.96,-94.97l139.96 94.97zm-139.96 -94.97l-311.93 -217c120.56,33.14 171.68,32.26 311.93,217zm-311.93 -217c-185.67,-40.54 -668.09,-326.8 -823.6,-462.35l119.6 234.6c476.75,203.93 1135.75,908.97 2196.28,1190.23 -163.24,-294.76 -379.69,-314.34 -655.14,-510.83 -236.36,-168.58 -463.13,-328.68 -678.98,-489.82 -607.05,-453.19 -952.32,-922.59 -1210.29,-1073.87 -166.93,-48.24 -166,-51.22 -256.44,-198.63 -65.07,-106.05 -82.05,-132.24 -109.13,-253.96 -136.21,-41.51 -7.28,33.64 -188.83,-161.68 -7.22,-7.78 -17.85,-18.43 -25.08,-25.92l-336.01 -305.02 -19.42 -45.5 -135.76 -215.12c-44.9,-35.19 -19.85,-1.05 -77.15,-76.27 -65.18,-85.54 4.74,26.69 -27.19,-71.8 -12.85,-13.45 -36.12,-34.8 -70.93,-87.51 -80.95,-122.93 42.53,118.16 -33.35,-79.59 -61.71,-65.29 -240.33,-237.45 -336.4,-306.67 70.09,145.71 49.74,72.25 142.5,210.95 52.56,78.51 68.06,114.04 138.14,217l618.25 803.15c137.76,169.8 204.11,152.69 351.07,356.63 361.26,501.39 832.66,839.12 1270.36,1218.52 119.93,103.95 22.98,50.36 147.5,133.46z"/>
   <path class="fil0" d="M4164.79 15068.96c-153.43,-20.89 -16.15,66.34 -94.57,-35.29l157.6 -49.63c-50.68,65.96 -31.99,31.54 -63.03,84.92zm298.89 -254.39c-200.28,-36.77 3.32,86.04 -127.33,-70.97 150.33,-60.32 193.28,-68.7 323.83,-191.86 -125.69,154.37 -139.86,75.17 -196.5,262.83zm-958.56 773.38c15.06,-57.02 21.78,-72.24 46.44,-118.95 4.51,-8.66 23.82,-13.06 27.57,-34.08 3.85,-21.72 21.06,-21.56 31.33,-32.65 82.11,-38.32 74.88,-38.6 176.9,-101.13l-93.02 142.94c-2.43,-5.8 -10.87,15.49 -16.61,22.98 148.62,-49.23 304.02,-201.44 417.84,-313.66 72.96,-71.92 27.58,-17.48 69.22,-84.44 75.72,-35.57 92.54,-42.12 160.64,-90.77 3.36,-2.43 82.94,-67.66 84.48,-69.42 81.9,-93.58 11.8,11.3 53.77,-94.2 221.97,-97.55 417.95,-261.28 525.89,-457.61 -188.44,-4.8 -17.15,102.24 -122.21,-46.49 270.76,-38.05 263.65,-137.69 408.52,-358.16 177.41,-90.4 444.43,-667.12 479.45,-968.82 -182.82,130.41 -176.58,249.32 -320.41,517.88 -71.24,133.06 -268.45,418.06 -334.58,477.4l-645.32 568.79c-505.03,416.4 -1044.69,849.37 -1434.53,1406.68 -127.77,182.7 -227.26,370.09 -277.39,607.5 9.82,-9.72 25.2,-37.78 29.67,-28.85l732.35 -944.94z"/>
   <path class="fil0" d="M10814.75 14293.22l-96.95 125.85c38.11,-287.54 -13.06,-57.91 96.95,-125.85zm-1020.98 858.85l-145.97 179.89c228.47,-97.06 430.53,-152.6 599.06,-233.43 139.74,26.74 106.21,53.65 91.87,-90.16 122.64,-152.33 388.73,-513.43 575.73,-601.82 12.8,-38.6 32.92,-105.33 55.32,-138.31 66.95,-98.6 15.77,-24.15 85.91,-69.87 25.49,-82.11 -0.33,-29.84 47.65,-99.49 3.64,-5.29 24.21,-6.34 27.13,-21.72 3.03,-15.67 20.57,-11.75 30.55,-18.1 23.88,-48.63 41.47,-90.65 72.64,-134.56 38.48,-54.21 52.6,-55.24 77.64,-78.42 35.74,-82.71 -2.37,-17.03 55.87,-96.99 4.9,-6.68 25.74,-9.93 29.71,-28.68 4.14,-19.69 22.22,-18.41 33.03,-28.02 59.79,-179.61 142.51,-280.13 242.65,-446.46 92.65,-153.8 210.99,-301.43 223.07,-473.33l23.44 -76.21 -120.94 -19.69c-76.49,208.68 -706.04,1493.09 -983.38,1616.52l935.57 -1655.06 -140.18 -7.51c-132.57,47.27 -677.65,1211.19 -767.2,1360.97 -173.38,290.07 -254.11,435.93 -429.99,683.05 -113.59,159.65 -387.95,425.95 -619.18,477.4z"/>
   <path class="fil0" d="M14405.25 6340.13c454.03,75.33 328.73,305.9 399.64,190.42 6.67,-10.91 23.06,22.18 34.53,33.31l-352.77 -147.79c-69.87,-43.9 -55.98,-47.65 -81.4,-75.94zm0 0c-224.62,-28.9 -481.15,-161.2 -711.23,-243.86 -103.84,-37.33 -216.61,-77.25 -333.24,-125.9 -450.56,-187.83 -283.79,-59.94 -328.75,-31.15 41.81,38.76 1245.22,526.15 1424.4,609.97 384.98,180.06 932.8,560.46 1313.37,655.75 -66.4,-171.45 14.45,-74.11 -222.64,-173.88l-652.82 -446.58c304.24,95.08 590.13,376.82 810.11,396.4 -364.96,-480.94 -1908.68,-1146.93 -2458.28,-1222.61 96.95,139.86 775.58,358.52 1045.37,500.64 12.89,6.82 53.88,31.92 62.53,37.39l51.18 43.83z"/>
   <path class="fil0" d="M12902.28 20557.77c31.48,265.92 345.88,566.96 426.28,850.75 131.31,67.61 102.53,43.17 144.71,203.6 108.47,185.18 206.69,205.65 310.52,439.74 295.71,116.47 1008.7,1367.19 1235.79,1434.64l147.85 -0.23c-83.22,-178.83 -50.24,-87.29 -178.57,-226.59 -101.68,-110.4 -70.74,-131.19 -215.68,-262.22 -258.96,-327.64 -525.87,-722.81 -813.73,-1092.19 -133.58,-171.38 -283.63,-381.05 -395.36,-568.34 -135.49,-227.09 -165.16,-368.82 -311.19,-553 -15.65,-9.33 -35.62,-18.47 -47.75,-26.52l-80.41 -51.24c-96.5,-82.17 -57.36,-124.03 -188.16,-233.39l-34.3 84.99z"/>
   <path class="fil0" d="M4586.39 4876.92c-10.6,9.82 -27.42,19.52 -35.52,24.93 -7.83,5.3 -29.29,32.59 -35.63,22.72 -6.16,-9.66 -24.75,12.24 -35.78,20.52 -136.98,179.78 -239.18,365.12 -341.87,562.16 -64.63,123.91 -109.51,175.54 -167.26,292.34 -61.37,124.08 -72.72,197.25 -172.7,277.32 126.44,50.57 129.3,-65.28 -90.01,601.94 -30.82,-46.67 -17.04,-15.83 -68.77,-117.52 -5.12,-10.04 -18.25,-53.94 -22.89,-70.16 -31.64,244.09 -17.31,99.11 -78.75,156.02 -27.13,403.12 -330.05,878.48 -308.97,1153.34 81.12,32.98 -49.08,-15.49 44.06,40.8 116.18,70.31 -63.64,59.23 94.57,25.26l276.62 -787.17c141.77,-130.08 95.24,-105.82 182.92,-284.1 -67.77,-74.24 -43.79,15.49 -12.63,-93.86l180.94 -424.02c83.1,-222.37 133.5,-387.26 247.72,-563.39 193.51,-298.39 504.03,-673.12 643.39,-1005.21 -312.18,186.9 -339.26,422.1 -517.55,674.93l218.11 -506.85z"/>
   <path class="fil0" d="M5727.27 21150.21c-13.81,-350.74 -39.61,-701.63 31.09,-1053.03 59.62,-296.24 40.87,-671.46 57.07,-1023.01 -10.09,-10.44 -28.28,-38.44 -32.03,-29.52 -67.72,161.76 -85.26,-655.53 -86.04,-663.91 -49.95,-149.27 -29.94,-119.44 -163.12,-171.94l105.78 3752.67c86.47,-207.57 117.13,-550.15 87.25,-811.26z"/>
   <path class="fil0" d="M13677.53 23747.89c53.16,82.66 80.79,161.53 153.47,213.2 211.88,150.67 92.71,-119.39 215.62,156.29 96.02,78.14 169.69,130.92 277.57,214.08 118.67,91.54 174.36,168.31 292.99,262.71 126.89,101.03 475.2,354.43 629.06,402.52 -6.12,-6.9 -15.94,-27.46 -18.53,-20.51 -2.7,7.17 -16,-17.15 -19.91,-20.4l-1556.68 -1619.33 -85.48 10.85c39.98,-141.55 30,-53.16 -172.61,-114.37 40.76,289.68 -30.66,132.42 136.99,320.19 64.68,72.45 87.56,106.93 147.51,194.77z"/>
   <path class="fil0" d="M5440.6 11071.06c-42.41,-201.56 -17.81,-325.15 61.99,-451.71 13.73,184.62 28.35,328.06 -61.99,451.71zm255.56 -1022.58l-271.66 158.2c55.09,86.64 42.68,-97.88 42.68,133.89 0,18.43 -24.37,149.18 -28.33,166.78 -33.21,148.12 -71.59,248.21 -102.53,401.58 -22.28,0.7 8.65,109.07 10.03,147.9 4.48,127.33 -9.2,107.91 9.06,255.26 58.67,36.52 72.84,9.55 109.73,53.84 2.04,-32.16 1.22,-128.6 7.29,-153.04 28.17,-112.61 10.15,-54.04 54.31,-123.58 102.3,-1055.45 1163.27,-1905.37 1411.27,-2251.42 -135,-1.16 -151.22,-35.23 -397.73,239.28 -108.7,121.1 -222.84,251.75 -319.69,390.16l-524.43 581.15z"/>
   <path class="fil0" d="M15581.36 6594.09l-1139.01 -944.78c-140.17,-93.09 -281.79,-170.79 -398.92,-263.49 378.41,110.85 592.39,395.01 902.92,510.55 -454.57,-679.91 -1392.62,-709.14 -1736.07,-888.8 -151.49,-79.24 -84.1,-64.36 -268.24,-83.5 153.75,138.04 224.28,90.83 388.29,163.29 176.69,78.03 106.32,127.11 304.4,251.63 269.56,169.36 653.72,342.52 883.57,540.95l925.96 704.72c224.06,117.62 84.37,67.55 137.1,9.43z"/>
   <path class="fil0" d="M5525.03 22681.47l-144.75 -4086.04c-1.55,12.68 -13.84,15.77 -16.88,39.43 -7.83,61.05 -57.08,-21.29 -61.98,439.25 -8.89,830.84 -14.72,3066.48 223.61,3607.36z"/>
   <path class="fil0" d="M3671.94 5626.26c76.88,260.4 -69.43,-57.74 26.7,73.12 4.68,6.39 16.43,25.15 21.95,32.04l60.32 55.65c-100.42,110.89 -1.05,31.38 -145.53,74.67 -132.74,426.33 -401.91,931.92 -454.57,1462.15 174.09,-196.09 153.48,-463.12 348.85,-674.93 59.56,-214.69 33.92,-338.55 180.45,-504.33 45.77,-165.04 168.25,-470.84 249.04,-611.41 136.93,-238.06 233.43,-196.93 368.92,-484.35l-74.06 -27.95 -453.58 625.3c121.43,-356.46 470.9,-775.64 449.73,-1008.91 -146.92,54.65 -529.03,833.44 -578.22,988.95z"/>
   <path class="fil0" d="M14834.18 6986.28l3.25 15.05c-300.54,-0.27 -37.77,6.85 -152.43,-51.33l-531.16 -135.06c55.08,88.18 62.2,8.61 -0.39,67.72 -135.61,-43.67 -845.4,-211.38 -906.95,-193.9l313.18 146.98c248.67,139.96 2115.48,591.39 2257.6,609.31 -75.83,-173.77 -923.93,-450.11 -983.1,-458.77z"/>
   <path class="fil0" d="M12409.71 21045.32l98.49 25.09c-71.36,-351.44 -509.66,-892.11 -631.43,-1227.67 -10.47,-8.28 -28.57,-32.43 -32.03,-23.99 -3.37,8.21 -24.17,-20.02 -28.19,-26.46 -47.7,-75.95 -21.12,-14.18 -46.48,-105.45 -41.59,-30.61 -36.3,-5.62 -85.81,-71.25 -42.25,-56.03 -45.61,-78.2 -77.54,-147.69 -328.51,-238.51 -665.73,-1144.46 -1003.78,-1446.76 39.92,279.59 1108.12,1859.6 1365.33,2273.63 95.39,153.7 407.03,638.55 441.44,750.55z"/>
   <path class="fil0" d="M15758.66 22689.35c152.48,-114.98 27.79,177.85 116.02,-82.12 181.27,196.45 364.08,545.84 605.79,835.64 100.2,120.17 22.89,-24.31 72.63,133.57 181.38,144.99 358.67,384.49 665.07,477.51 -112.29,-170.9 -295.75,-307.98 -435.16,-457.66 -478.35,-513.35 -871.77,-1147.49 -1106.41,-1389.3 -6.67,-6.85 -27.18,-8.83 -32.21,-27.91 -5.06,-19.52 -22.06,-18.86 -36.35,-26.48l126.63 283.69c-259.8,-180.89 -354.05,-547.22 -638.81,-685.53l662.8 938.59z"/>
   <path class="fil0" d="M2308.77 5735.23c-5.23,13.9 -10.97,31.81 -14.06,42.24 -35.91,119.28 -38.11,181.21 -125.9,266.85l-98 1362.08c114.88,-105.12 92.93,-88.08 129.05,-282.14 101.58,-545.9 399.1,-1817.52 204.7,-2198.15l-95.79 809.12z"/>
   <path class="fil0" d="M11972.18 19023.69c109.9,327.8 268.68,507.13 439.01,774.99 191.86,301.53 283.19,562.05 491.09,759.09l34.3 -84.99c9.6,-106.98 49.41,-78.63 -70.2,-263.31 -4.35,-6.73 -16.33,-19.14 -23.38,-29.52l-100.42 -148.73c-265.04,-376.75 -474.48,-908.09 -694.53,-1041.32l-75.87 33.79z"/>
   <path class="fil0" d="M3868.37 15675.47c346.77,-176.64 1378.56,-1229.76 1660.41,-1677.18 150.77,-239.39 281.81,-462.89 386.59,-744.64 -162.8,58.9 -340.1,488.66 -435.67,647.31 -169.9,281.92 -261.78,403.95 -490.75,622.55 -106.32,101.47 -171.56,174.98 -280.41,279.54l-840.17 872.42z"/>
   <path class="fil0" d="M9574.18 13563.85c-485.23,72.19 -674.78,184.85 -1072.94,-97.77 -270.71,-192.25 -417.24,-487.51 -477.07,-913.67 -157.77,291 107.04,812.79 401.74,1041.11 220.31,170.68 980.18,322.17 1148.27,-29.67z"/>
   <path class="fil0" d="M13057.68 19563.7c66.85,209.11 366.84,619.13 498.63,817.6 175.37,264.15 385.1,503.27 550.53,768.58 75.06,-49.8 48.86,95.68 65.2,-140.51l-119.51 -164.62c-60.43,-300.55 -670.64,-758.15 -800.56,-1175.39l-173.5 -178.19 -20.79 72.53z"/>
   <path class="fil0" d="M17908.22 25171.4c129.86,63.7 56.36,-29.52 154.69,124.95l88.22 -31.76 -501.82 -536.41 -239.01 -188.61c-47.42,-53.21 -36.12,-44.93 -87.91,-114.09l-71.74 -93.96 -449.72 -317.76c47.64,227.97 361.21,498.03 506.51,629 123.76,111.62 473.45,478.12 600.78,528.64z"/>
   <path class="fil0" d="M13772.61 7169.7c75.05,52.95 857.48,155.13 1095.81,233.66 239.12,78.75 752.15,312.84 984.82,299.27 -103.08,-128.59 -747.52,-334.01 -929.06,-401.46 -280.81,-104.28 -805.54,-281.46 -1151.57,-131.47z"/>
   <path class="fil0" d="M16084.68 24725.31c59.35,-70.04 60.34,40.36 -36.4,-158.32 120.17,6.84 82.84,-22.77 161.47,54.09 70.64,69.05 63.64,103.29 102.36,184.53 192.51,122.87 364.24,248.77 573.47,355.42 -110.13,-231.73 -262.99,-319.02 -443.65,-466.33 -435.78,-355.25 -313.67,-409.46 -508.08,-397.27 -73.67,-31.5 -286.76,-100.53 -306.83,-110.29 -175.8,-85.71 -104.73,-277.72 -134.44,-95.68 29.71,45.93 534.37,593.98 592.1,633.85z"/>
   <path class="fil0" d="M12190.89 12293.6c-9.04,4.19 -25.14,-0.17 -27.79,11.09 -6.12,25.8 -231.4,113.98 -271.27,282.12 96.62,69.66 37.22,-39.87 110.84,114.33 893.99,-1029.66 1043.54,-725.45 1300.2,-1042.06 -768.03,135.39 -866.85,482.49 -1111.98,634.52z"/>
   <path class="fil0" d="M4619.25 25003.96c74.12,-69.65 64.75,18.1 76.71,-146.63l-87.95 -710.61c-23.12,-280.31 -17.93,-631.55 -136.44,-853.45 -21.06,380.78 -11.3,1401.93 147.68,1710.69z"/>
   <path class="fil0" d="M14303.72 15779.81c287.98,-58.4 1569.2,-1064.55 1708.94,-1409.12 -134.89,34.36 -170.02,139.98 -400.36,329.51 -165.82,136.49 -261.39,215.9 -432.58,375.27 -117.35,109.3 -284.33,233.49 -421.86,341.64l-355.97 252.08c-135.94,109.24 -51.12,37.16 -98.17,110.62z"/>
   <path class="fil0" d="M15758.66 22689.35c73.67,190.7 142.22,168.59 260.18,347.48l625.92 848.38c71.46,78.09 49.85,68.66 156.17,128.55 -106.94,-215.52 -176.3,-246.79 -247.83,-437.32 -49.74,-157.88 27.57,-13.4 -72.63,-133.57 -241.71,-289.8 -424.52,-639.19 -605.79,-835.64 -88.23,259.97 36.46,-32.86 -116.02,82.12z"/>
   <path class="fil0" d="M4697.45 23305.51c233.61,240.49 220.81,838.17 288.64,1187.42 13.73,190.2 60.99,387.73 194.44,511.87 -22.99,-358.13 -111.88,-683.16 -186.78,-1030.09l-166.87 -746.91c-71.85,-320.72 -51.96,-180.6 -114.88,-242.86l-14.55 320.57z"/>
   <path class="fil0" d="M10892.9 4775.24c149.84,122.85 173.21,85.85 421.1,104.77 622.66,47.6 776.79,186.06 1281.72,196.77 -415.8,-199.96 -1170.98,-381.73 -1702.82,-301.54z"/>
   <path class="fil0" d="M8207.75 13576.37c-421.75,-789.32 -353.99,-765.6 -260.83,-1794.97 -162.63,145.19 -40.04,-170.02 -135.51,196.1 -15.71,60.45 -19.85,232.22 -20.4,300.66 -2.48,303.03 33.97,715.48 132.02,1003.55 87.14,256.16 117.9,181.55 284.72,294.66z"/>
   <path class="fil0" d="M15019.58 23486.5c71.3,134.72 87.03,207.4 198.14,265.69 204.16,-24.26 61.32,-3.15 145.09,152.27 63.48,117.56 -36.5,-3.26 108.97,177.51l20.8 9.49c29.71,-182.04 -41.36,9.97 134.44,95.68 20.07,9.76 233.16,78.79 306.83,110.29l-10.19 -106.92c-167.65,-25.38 -100.7,-2.88 -160.2,-75.12 -138.54,-167.7 -426.34,-524.39 -596.03,-629.12l-147.85 0.23z"/>
   <path class="fil0" d="M11610.14 12630.65l140.18 7.51 47.81 38.54 120.94 19.69 -23.44 76.21 107.04 -71.46c-73.62,-154.2 -14.22,-44.67 -110.84,-114.33 -61.54,-66.29 -59.46,7.56 -22.67,-100.36 24.81,-72.74 41.63,-62.49 86.03,-117.25 69.27,-85.42 99.98,-137.08 208.9,-225.22 120.05,-82.05 175.92,-118.73 190.25,-294.31 -339.48,186.61 -586.21,417.74 -744.2,780.98z"/>
   <path class="fil0" d="M8480.12 13245.04c-20.35,-207.84 -159.92,-346.97 -224.95,-592.05 -68.31,-257.59 9.06,-454.02 -1.92,-706.64 -292.11,329.44 -97.55,969.53 65.74,1195.96 123.02,170.57 -2.92,72.84 161.13,102.73z"/>
   <path class="fil0" d="M12936.58 20472.78c130.8,109.36 91.66,151.22 188.16,233.39l80.41 51.24c12.13,8.05 32.1,17.19 47.75,26.52 61.16,163.18 133.51,85.87 261.39,275.9l18.53 -46.34c-15.88,-84.8 -41.24,-190.36 -88.45,-264.48 -119.56,-187.77 -50.85,-37.82 -166.48,-133.33l-91.43 -113.34c-17.27,-23.92 -46.34,-63.14 -63.26,-87.62 -17.1,-24.77 -30.56,-44.23 -61.11,-93.37l-62.59 -105.76c-3.19,-8.5 -11.91,-28.19 -17.31,-21.13 -9.99,13.12 -82.55,-29.62 -98.66,-34.79l-40.53 20.28c7.05,10.38 19.03,22.79 23.38,29.52 119.61,184.68 79.8,156.33 70.2,263.31z"/>
   <path class="fil0" d="M14437.67 22198.16l3.53 35.08 121.38 32.1c74.51,-193.02 199.91,122.19 426.72,275.84 -247.16,-379.19 -233.49,-393.54 -396.55,-450.22 -97,123.69 -168.15,-62.86 -212.93,-144.27 -25.69,-46.77 -57.46,-118.01 -66.77,-133.39 -129,-212.32 -23.01,-65.18 -137.82,-146.15 -56.74,-82.71 36.01,-17.59 -136.99,-20.63 35.52,236.31 23.61,165.28 163.47,319.86 101.79,112.55 106.42,168.74 235.96,231.78z"/>
   <path class="fil0" d="M5734.6 11352.24c113.81,-119.33 129.75,-477.67 202.76,-701.84 81.79,-250.87 192.52,-436 286.44,-647.03 -323.32,161.02 -559.13,878.53 -489.2,1348.87z"/>
   <path class="fil0" d="M2717.47 5887.27l19.13 264.48 63.98 -31.54 215.01 -1323.69c-140.07,155.9 -149.68,281.41 -219.15,540.33 -50.03,186.45 -92.09,373.24 -78.97,550.42z"/>
   <path class="fil0" d="M4222.86 25088.45c116.02,-104.88 89.5,4.26 116.8,-179.01l-60.01 -1170.98c-44.21,-219.64 -6.12,-69.49 -78.3,-146.57l21.51 1496.56z"/>
   <path class="fil0" d="M16232.64 24890.48l-21.94 19.96c110.84,248.59 256.37,259.4 482.14,450.21 142.88,120.77 347.32,314.24 582.85,334.13 -50.3,-160.36 -334.74,-274.61 -516.56,-401.89l-526.49 -402.41z"/>
   <path class="fil0" d="M9211.97 13901.34c-109.74,-77.09 -376.21,-0.99 -567.5,-34.3 -285.39,-49.62 -304.36,-163.68 -537.97,-241.81 154.53,417.34 854.56,467.19 1105.47,276.11z"/>
   <path class="fil0" d="M15302.82 21031.2c-116.7,-66.73 -135.66,-100.64 -231.01,-180.55l-72.9 27.35 438.41 613.07c118.9,191.85 16.16,139.63 259.95,187.89 -122.69,-307.77 -295.63,-357.53 -394.45,-647.76z"/>
   <path class="fil0" d="M16143.97 25090.76l32.53 -44.82 -40.14 -38.67 -100.97 -148.07c-86.64,-128.37 -669.43,-651.93 -828.97,-740.33 60.72,125.62 1.05,37.11 91.49,152.1 31.32,39.7 80.34,88.33 120.88,132.84l725.18 686.95z"/>
   <path class="fil0" d="M8366.63 10190.19c50.13,276.73 215.3,294.1 516.17,273.04 -45.27,-249.49 -299.66,-376 -516.17,-273.04z"/>
   <path class="fil0" d="M14691.07 6913.71l7.5 -55.53c-186.45,-115.31 -347.04,-186.72 -570.16,-284.56 -103.18,-45.22 -221.19,-83.87 -324.92,-132.58 -371.86,-174.42 -207.96,-65.17 -268.73,-24.87l1156.31 497.54z"/>
   <path class="fil0" d="M14303.72 15779.81c-153.46,29.94 -997.38,489.82 -1099.12,607.05 214.68,-14.45 993.84,-462.46 1099.12,-607.05z"/>
   <path class="fil0" d="M18543.83 25750.61l188.07 81.28 -57.48 -232.67 -179.1 -88.07 -183.32 9.6c-85.19,-55.43 47.09,-20.35 -121.88,-62.82 -81.28,-20.4 -39.47,-0.21 -73.83,12.31 99.71,94.4 267.79,207.96 427.54,280.37z"/>
   <path class="fil0" d="M11667.27 4693.5c157.05,49.37 362.97,50.19 539.06,102.2 220.53,65.06 304.63,119.06 547.28,151.7 -75.95,-104.49 44.33,-30.33 -124.64,-127.82 -230.84,-133.18 -716.9,-152.88 -961.7,-126.08z"/>
   <path class="fil0" d="M3314.32 5819.38c150.32,-272.76 384.53,-623.11 454.51,-920.39l-183.85 211.81c-48.98,76.49 -82.34,136.38 -126.46,225.88 -87.62,177.8 -141.05,279.92 -144.2,482.7z"/>
   <path class="fil0" d="M18731.9 25831.89c46.8,57.35 -112.02,-17.31 93.19,83.88 110.51,54.54 63.36,24.65 176.91,55.86l164.94 -76.98c-150.16,-132.24 -318.86,-174.77 -492.52,-295.43l57.48 232.67z"/>
   <path class="fil0" d="M10488.57 18857.44c-7.12,-206.42 -359.78,-741.34 -499.85,-841.55 44.72,177.63 335.84,721.81 499.85,841.55z"/>
   <path class="fil0" d="M8886.94 11958.81c228.8,-31.17 439.19,-273.91 520.53,-519.43 -183.47,81.06 -486.06,399.15 -520.53,519.43z"/>
   <path class="fil0" d="M8480.12 13245.04c73.56,220.75 463.62,499.19 774.49,250.59 -279.16,-176.14 -300,185.8 -694.9,-189.09 -91.99,-87.36 -31.38,-30.67 -79.59,-61.5z"/>
   <path class="fil0" d="M3076.69 7889.2l10.48 323.65c170.12,-121.92 64.85,99.93 112.33,-188.32l69.98 348.7c-3.64,-65.35 -21.18,-245.85 -8.83,-308.33 36.01,-182.1 7.29,-41.8 106.22,-198.31 -158.21,33.97 21.61,45.05 -94.57,-25.26 -93.14,-56.29 37.06,-7.82 -44.06,-40.8 -13.85,9.71 -49.08,30.71 -60.34,37.22 -10.87,6.28 -31.32,17.81 -42.52,24.27 -12.8,7.33 -32.71,17.69 -48.69,27.18z"/>
   <path class="fil0" d="M2512.43 16767.27c137.75,-162.3 281.46,-464.78 339.7,-698.21 -178.45,161.95 -347.98,447.24 -339.7,698.21z"/>
   <path class="fil0" d="M2602.71 5621.62c157.6,-229.23 191.02,-564.14 210.21,-865.9 -108.57,157.11 -215.85,694.84 -210.21,865.9z"/>
   <path class="fil0" d="M8436.78 12319.41l429.98 -504.1c-269.35,72.14 -442.72,198.31 -429.98,504.1z"/>
   <path class="fil0" d="M7405.37 25573.25c-9.99,-8.33 -25.25,-33.97 -30.6,-24.05 -5.41,9.98 -24.6,-18.25 -32.22,-22.34 -8.21,-4.35 -103.89,-49.23 -106.75,-50.28 -135.78,-50.4 -118.02,-24.27 -196.49,-44.34 -236.69,-60.6 -87.8,-108.36 -356.02,-186.68 74.39,372.57 25.02,149.95 309.48,215.79 125.72,29.07 182.97,100.1 412.6,111.9z"/>
   <path class="fil0" d="M14177.93 22877.68c56.37,42.8 49.31,26.8 97.28,77.04 25.59,26.8 44.45,56.47 67.18,85.48 116.74,149.5 34.24,121.97 234.97,139.74 -92.15,-192.79 -108.86,-141.9 -309.21,-316.28 -105.66,-91.91 -171.28,-182.69 -271.21,-272.69l180.99 286.71z"/>
   <path class="fil0" d="M14687 23523.51c162.89,84.15 293.71,191.52 464.6,346.32l34.25 -108.42c-357.24,-103.79 -278.16,-223.57 -506.53,-423.03l7.68 185.13z"/>
   <path class="fil0" d="M13589.08 6545.89c-130.09,-158.71 -339.54,-232.11 -610.91,-240.72 176.96,158.76 371.23,109.58 610.91,240.72z"/>
   <path class="fil0" d="M17761.64 25810.59l-408.14 -201.99c36.89,95.46 68.66,214.24 276.83,236.02 256.77,26.86 40.16,14.95 131.31,-34.03z"/>
   <path class="fil0" d="M406.22 4840.91c45.32,64.2 -73.79,79.7 129.97,134.84 205.7,55.59 83.22,22.5 165.44,-97.61l-190.75 -69.82 -104.66 32.59z"/>
   <path class="fil0" d="M14153.84 6814.94c-47.87,-47.43 13.94,-19.46 -124.74,-95.4 -31.77,-17.42 -102.92,-42.25 -141.9,-58.23 -120.44,-49.47 -179.12,-82.23 -298.12,-115.42 105.54,114.64 356.74,242.97 564.76,269.05z"/>
   <path class="fil0" d="M13096.57 21302.36c126.72,117.3 104.61,113.65 179.55,271.54 75.23,-53.32 103.95,90.11 32.04,-109.69 -34.63,-73.4 -204.71,-284.45 -246.61,-334.35l35.02 172.5z"/>
   <path class="fil0" d="M15054.05 24122.84c314.11,40.75 55.3,36.28 160.53,-107.93l-215.73 -74.11 -16.94 107.2 72.14 74.84z"/>
   <path class="fil0" d="M16416.44 22844.2l19.42 45.5c141.02,-48.86 110.9,-80.13 110.9,63.42 225.05,0 4.53,29.68 70.19,-79.25 -141.49,-270 -13.49,-134.71 -195.59,-165l-4.92 135.33z"/>
   <path class="fil0" d="M13168.26 5571.39c36.38,41.09 50.18,95.34 210.54,137.98 175.64,46.59 203.06,-12.03 230.73,-28.95l-441.27 -109.03z"/>
   <path class="fil0" d="M16328.71 23688.88c-73.73,-185.34 -40.15,-181.32 -210.6,-259.29l10.85 164.17c94.2,63.53 90.45,58.29 199.75,95.12z"/>
   <path class="fil0" d="M3540.36 5692.98c133.84,0 89.01,-28.29 92.43,125.51l2.59 43.25c144.48,-43.29 45.11,36.22 145.53,-74.67l-60.32 -55.65c-5.52,-6.89 -17.27,-25.65 -21.95,-32.04 -96.13,-130.86 50.18,187.28 -26.7,-73.12l-131.58 66.72z"/>
   <path class="fil0" d="M4989.57 14356.96c69.65,-31.48 19.95,16.28 87.46,-49.89 23.43,-23 48.63,-60.45 65.62,-85.15 70.86,-103.19 83.98,-134.51 133.23,-269.61 -144.87,220.47 -137.76,320.11 -408.52,358.16 105.06,148.73 -66.23,41.69 122.21,46.49z"/>
   <path class="fil0" d="M9815.5 3338.67l21.67 20.51c122.77,-78.97 137.98,-95.46 221.47,-249.04 -160.3,68.82 -173.49,31.43 -243.14,228.53z"/>
   <path class="fil0" d="M8970.98 4824.2l691.44 -39.92c-177.58,-92.14 -378.76,-10.65 -691.44,39.92z"/>
   <path class="fil0" d="M13601.71 22314.8c16.04,5.29 57.79,13.34 62.92,12.41 1.76,-0.33 15.33,-4.36 16.98,-4.8 1.32,-0.39 6.67,-6.84 9.32,-10.75l-62.15 -166.88c-93.92,-52.83 -20.9,-17.92 -135.27,-28.62l108.2 198.64z"/>
   <path class="fil0" d="M3782.95 14906.29l124.52 -101.19 -99.65 -105.62c-97.99,126.83 -106.27,98.27 -24.87,206.81z"/>
   <polygon class="fil0" points="3145.79,12801.55 3246.26,12839.66 3306.37,12684.53 3172.98,12691.32 "/>
   <path class="fil0" d="M13774.32 21302.3l22.55 -106.32c-176.63,-115.31 -75.5,-159.49 -138.26,-50.56l115.71 156.88z"/>
   <path class="fil0" d="M16072.06 22313.91c12.08,8.94 32.26,3.58 39.05,22.23 62.2,170.89 -32.11,-35.51 71.07,38.22l-52.88 -166.27c-84.93,74.01 -22.22,-21.95 -57.24,105.82z"/>
   <path class="fil0" d="M14038.24 21646.52l15.17 -88.61c-6.79,-3.15 -99.65,-33.91 -111.01,-39.98 75.11,203.76 72.35,113 95.84,128.59z"/>
   <path class="fil0" d="M13942.4 21517.93l11.41 -89.34c-168.02,-58.95 -24.09,111.45 -89.6,-25.65 -7.29,-15.26 -25.04,-8.77 -35.85,-16.21 0.54,1.05 29.45,53.33 35.68,60.17 47.21,51.56 43.73,43.68 78.36,71.03z"/>
   <path class="fil0" d="M15158.33 24290.65c33.76,118.62 -67.99,67.39 127.44,116.41l-127.44 -116.41z"/>
   <path class="fil0" d="M8886.94 11958.81l-127.05 100.8c284.16,-47.31 58.33,16 127.05,-100.8z"/>
   <path class="fil0" d="M13386.02 19265.74l71.42 125.18c4.3,-286.26 30.45,-53.22 -71.42,-125.18z"/>
  </g>
 </g>
</svg>
