<?xml version="1.0" encoding="UTF-8"?>
<!DOCTYPE svg PUBLIC "-//W3C//DTD SVG 1.1//EN" "http://www.w3.org/Graphics/SVG/1.1/DTD/svg11.dtd">
<!-- Creator: CorelDRAW -->
<svg xmlns="http://www.w3.org/2000/svg" xml:space="preserve" width="210mm" height="297mm" version="1.1" style="shape-rendering:geometricPrecision; text-rendering:geometricPrecision; image-rendering:optimizeQuality; fill-rule:evenodd; clip-rule:evenodd"
viewBox="0 0 21000 29700"
 xmlns:xlink="http://www.w3.org/1999/xlink"
 xmlns:xodm="http://www.corel.com/coreldraw/odm/2003">
 <defs>
  <style type="text/css">
   <![CDATA[
    .fil2 {fill:#6E10E5}
    .fil0 {fill:#8012FA}
    .fil3 {fill:#BA8CF1}
    .fil1 {fill:#F7F1FE}
   ]]>
  </style>
 </defs>
 <g id="Camada_x0020_1">
  <metadata id="CorelCorpID_0Corel-Layer"/>
  <path class="fil0" d="M5478.99 4725.12l0 158.05c52.04,4.72 101.47,23.28 141.64,53.83 5.28,4.02 10.2,8.57 15.41,12.53 17.6,13.38 40.05,42.09 52.74,59 78.89,105.09 114.37,293.58 126.84,431.81 6.4,70.99 8.5,143.41 7.8,215.21 -0.8,80.99 -6.45,124.14 22.82,196.3 36.93,91.06 116.04,160 208.39,182.65 9.41,2.31 45.04,6.79 49.03,8.49l1862.03 0 2.12 -0.74c6.61,-1.71 27.18,-3.33 44.85,-7.72 94.26,-23.41 169.08,-89.99 208.45,-182.52 29.27,-68.79 23.6,-117.68 22.89,-196.46 -1.94,-211.45 19.87,-518.71 159.08,-678.3 47.32,-54.24 112.26,-87.16 185.17,-94.14l0 -157.97c-307.2,-24.38 -346.38,-498.44 -344.24,-771.18 0.62,-78.82 6.72,-128.3 -22.84,-197.7 -39.71,-93.23 -113.87,-158.65 -208.48,-182.61 -9.67,-2.45 -43.61,-6.43 -48.01,-8.34l-1857.95 0c-6.06,2.1 -18.47,2.06 -25.74,3.17 -104.98,16.02 -190.31,85.48 -233.75,185.33 -29.85,68.61 -24.94,118.45 -23.91,196.5 2.5,189.87 -15.88,412.03 -93.11,577.92 -43.58,93.62 -121.07,186.2 -251.23,196.89z"/>
  <path class="fil1" d="M6566.63 5465.89c136.47,1.05 273.39,0 409.91,0 131.54,0 250.41,6.13 366.37,-42.71 95.37,-40.16 167.99,-105.73 202.03,-207.34 26.85,-80.14 27.9,-181.08 -7.95,-260.38 -10.5,-23.22 -24.78,-48.17 -38.74,-64.52 -4.72,-4.81 -14.41,-17.35 -24.7,-27.54 -46.63,-46.19 -85.37,-58.02 -93.73,-65.6 -5.04,-0.57 -21.87,-8.64 -28.8,-11.08 -9.81,-3.44 -19.39,-6.79 -29.5,-9.36 -6.55,-1.66 -63.72,-13.19 -63.85,-13.29 2.82,-2.25 24.5,-6.42 30.2,-8.08 10.37,-3.01 19.12,-6.37 28.61,-10.22 19.39,-7.89 34.52,-17.43 50.37,-27.41 15.26,-9.61 31.29,-24.16 42.61,-35.13 57.13,-55.39 91.45,-138.67 88.33,-222.8 -1.36,-36.84 -7.42,-49.38 -8.94,-68.7 -2.76,-5.74 -6.07,-20.31 -8.75,-27.96 -49.19,-140.17 -184.69,-208.4 -333.55,-220.02 -47.17,-3.69 -98.13,-1.86 -145.72,-1.86l-444.61 -0.01 0.05 1323.98 10.36 0.03z"/>
  <path class="fil0" d="M6771.94 5292.64c65.35,0 130.72,-0.01 196.09,-0.01 62.34,0 127.8,2.88 188.6,-8.3 110.67,-20.34 186.7,-82.84 187.43,-205.69 0.74,-124.36 -77.65,-183.28 -188.48,-204.41 -60.97,-11.62 -124.05,-9.23 -186.33,-9.23 -65.73,0 -131.47,0 -197.2,0l-0.11 427.64z"/>
  <path class="fil0" d="M6772.53 4702.58c44.69,1.84 93.29,0.1 138.42,0.1 94.51,0 215.18,7.76 296.67,-50.05 16.61,-11.79 24.6,-19.42 36.57,-33.84 42.7,-51.41 53.37,-150.08 13.29,-214.65 -16.3,-26.25 -41.83,-49.54 -74.63,-63.81 -27.42,-11.94 -81.46,-26.91 -115.39,-24.32 -22.04,1.11 -49.85,-0.44 -72.71,-0.44l-222.22 0 0 387.01z"/>
  <path class="fil2" d="M6566.63 5465.89c1.29,2.72 1.92,4.02 4.23,6.31 13.56,13.41 26.61,20.15 45.91,24.87 22.64,5.53 47.5,4.9 75.56,4.9 53.84,0 107.69,0.11 161.54,0.11 -0.09,-0.01 -0.25,-0.01 -0.25,0.09l-0.03 2.59c0.03,0.17 0.12,0.65 0.28,0.94l180.96 0.07c0.1,0.36 0.01,0.93 0.08,1.13 0.05,0.13 0.21,0.55 0.26,0.69l0.88 1.77c50.75,0 100.8,0.91 150.46,-5.17 6.57,-0.81 16.31,-2.03 22.58,-2.94l13.77 -2.3c1.28,-0.29 0.66,-0.68 1.9,-0.45 5.09,0.93 -1.53,-0.82 2.77,3.6 2.74,-2.66 18.24,-3.83 22.61,-4.84 51.16,-11.91 98.91,-24.78 145.37,-52.89 23.67,-14.32 25.47,-14.23 50.62,-33.26l38.09 -33.7c3.06,-3.26 3.41,-4.7 6.63,-7.94 9.13,-9.21 18.49,-20.86 25.83,-31.4l16.32 -25.03c9.79,-16.22 16.74,-30.55 23.76,-48.07 17.89,-44.65 27.94,-92.55 27.91,-141.39l-0.57 -40.19c0.6,-1.95 2.78,-2.49 1.33,-13.12l-9.48 -47.76c-2.49,-9.33 -9.36,-33.73 -14.57,-42.89l-3.61 0.64 -18.44 -37.95c-3.78,-6.21 -32.77,-50.75 -37.9,-52.1 -3.61,-0.94 -0.09,-2.08 -3.18,0.73 13.96,16.35 28.24,41.3 38.74,64.52 35.85,79.3 34.8,180.24 7.95,260.38 -34.04,101.61 -106.66,167.18 -202.03,207.34 -115.96,48.84 -234.83,42.71 -366.37,42.71 -136.52,0 -273.44,1.05 -409.91,0z"/>
  <path class="fil2" d="M7379.82 4797.8c2.28,-1.78 1.62,-0.81 -0.39,-5.02 -14.1,-29.43 11.83,-50.06 28.08,-69.03 26.92,-31.43 43.66,-45.15 64.47,-86.34l6.09 -12.14c15.94,-34.06 28.94,-75.04 28.65,-113.88 -0.05,-6.53 1.19,-9.3 1.31,-15.69l-4.07 -49.66c-2.19,-15.01 -6.66,-35.87 -11.63,-50.65 -2.67,-7.95 -0.78,-5.88 -3.48,-3.66 1.52,19.32 7.58,31.86 8.94,68.7 3.12,84.13 -31.2,167.41 -88.33,222.8 -11.32,10.97 -27.35,25.52 -42.61,35.13 -15.85,9.98 -30.98,19.52 -50.37,27.41 -9.49,3.85 -18.24,7.21 -28.61,10.22 -5.7,1.66 -27.38,5.83 -30.2,8.08 0.13,0.1 57.3,11.63 63.85,13.29 10.11,2.57 19.69,5.92 29.5,9.36 6.93,2.44 23.76,10.51 28.8,11.08z"/>
  <path class="fil3" d="M6772.53 4702.58l0 -387.01 222.22 0c22.86,0 50.67,1.55 72.71,0.44 -5.63,-2.18 -289.07,-2.89 -295.41,-0.55 -1.92,9.65 -0.26,325.76 -0.5,375.74 -0.03,5.75 -0.74,7.32 0.98,11.38z"/>
 </g>
</svg>
