<?xml version="1.0" encoding="UTF-8"?>
<!DOCTYPE svg PUBLIC "-//W3C//DTD SVG 1.1//EN" "http://www.w3.org/Graphics/SVG/1.1/DTD/svg11.dtd">
<!-- Creator: CorelDRAW -->
<svg xmlns="http://www.w3.org/2000/svg" xml:space="preserve" width="210mm" height="297mm" version="1.1" style="shape-rendering:geometricPrecision; text-rendering:geometricPrecision; image-rendering:optimizeQuality; fill-rule:evenodd; clip-rule:evenodd"
viewBox="0 0 21000 29700"
 xmlns:xlink="http://www.w3.org/1999/xlink"
 xmlns:xodm="http://www.corel.com/coreldraw/odm/2003">
 <defs>
  <style type="text/css">
   <![CDATA[
    .fil0 {fill:#0074BE}
    .fil2 {fill:#0188C9}
    .fil1 {fill:whitesmoke}
   ]]>
  </style>
 </defs>
 <g id="Camada_x0020_1">
  <metadata id="CorelCorpID_0Corel-Layer"/>
  <path class="fil0" d="M24234.69 6051.12l968.88 271.95c47.71,5.21 606.99,-167.23 727.84,-202.73 72.02,-21.16 190.95,-30.43 238.38,-79.45 2.34,-3.39 222.55,-2265.71 209.24,-2394.49l-2340.85 -6.52 196.51 2411.24z"/>
  <path class="fil1" d="M25207.93 5025.98l365.82 2.27 -41.66 389.18 -320.72 61.57c-50.25,9.3 -291.94,-53.48 -325.87,-82.1 -29.76,-46.58 -20.51,-148.68 -33.77,-211.5l-283.23 -4.76 33.75 466.18 615.29 171.41 597.95 -190.54 71.51 -905.11 -595.76 -2.04c59.09,-48.39 240.92,-109.49 327.21,-144.61 81.15,-33.03 268.72,-101.43 327.69,-141.27l0.07 -274.45c-64.73,-15.77 -1347.87,-13.26 -1487.86,-4.19l41.53 288.06 678.26 3.16 -661.6 294.01 34.74 284.35 656.65 0.38z"/>
  <path class="fil2" d="M24458.35 4156.02c139.99,-9.07 1423.13,-11.58 1487.86,4.19l-0.07 274.45c-58.97,39.84 -246.54,108.24 -327.69,141.27 -86.29,35.12 -268.12,96.22 -327.21,144.61l595.76 2.04 -71.51 905.11 -597.95 190.54 2.16 274.95c100.89,-17.63 461.84,-129.84 595.64,-170.97 34.66,-10.65 175.93,-43.68 193.6,-67.21 11.75,-23.95 173.65,-1826.1 176.05,-1979.57l-966.3 -7.25 0.61 265.08c-115.36,19.8 -642.15,-5.12 -712.78,4.43l-48.17 18.33z"/>
  <path class="fil2" d="M25211.37 5479l320.72 -61.57 41.66 -389.18 -365.82 -2.27c17.59,43.58 21.1,393.18 3.44,453.02z"/>
 </g>
</svg>
