<?xml version="1.0" encoding="UTF-8"?>
<!DOCTYPE svg PUBLIC "-//W3C//DTD SVG 1.1//EN" "http://www.w3.org/Graphics/SVG/1.1/DTD/svg11.dtd">
<!-- Creator: CorelDRAW -->
<svg xmlns="http://www.w3.org/2000/svg" xml:space="preserve" width="210mm" height="297mm" version="1.1" style="shape-rendering:geometricPrecision; text-rendering:geometricPrecision; image-rendering:optimizeQuality; fill-rule:evenodd; clip-rule:evenodd"
viewBox="0 0 21000 29700"
 xmlns:xlink="http://www.w3.org/1999/xlink"
 xmlns:xodm="http://www.corel.com/coreldraw/odm/2003">
 <defs>
  <style type="text/css">
   <![CDATA[
    .fil0 {fill:#E14C26}
    .fil2 {fill:#EBEBEB}
    .fil1 {fill:#F06429}
    .fil3 {fill:white}
   ]]>
  </style>
 </defs>
 <g id="Camada_x0020_1">
  <metadata id="CorelCorpID_0Corel-Layer"/>
  <path class="fil0" d="M22359.05 6054.86l6.46 0c7.04,-4.11 96.04,-27.09 112.69,-32 36.95,-10.89 76,-21.45 113.1,-31.3 148.94,-39.52 302.16,-85.17 451.12,-124.98l169.02 -46.92c16.16,-4.62 41.44,-9.85 55.24,-15.86l201.19 -2250.36 -2206.5 0.42 200.54 2251.25c11.84,4.86 92.14,25.7 112.75,31.64 109.75,31.66 225.5,62.22 335.7,92.89l392.88 108.76c6.29,1.71 50.51,13.1 55.81,16.46z"/>
  <path class="fil1" d="M22364.11 4013.5c114.67,2.31 231.82,0.08 346.77,0.08 57.77,0 115.53,0 173.29,0 5.68,0 164.29,-2.38 170.62,1.79l-25.23 271.67c-2.96,5.07 -4.56,2.93 -19.22,2.88l-313.14 -0.01c-110.41,0 -222.94,-2.13 -333.09,0.09l0 279.77c-11.38,3.06 -343.58,1.09 -364.61,1.09l2.16 1c7.14,2.14 361.25,0.65 361.43,0.65l641.36 -0.01 -75.94 847.95 -563.72 155.93c0,2.73 0.48,1.6 -3.16,1.35 0.25,0.36 0.6,0.47 0.68,1.13 0.38,2.77 2.05,-2.49 1.83,13.87l-0.03 126.2c0,46.9 -1.93,98.02 0.19,144.41l729.82 -203.49 172.1 -1921.75 -902.11 -0.01 0 275.41z"/>
  <path class="fil2" d="M22362.19 4848.13c2.78,-12.61 0.9,-52.97 0.9,-68.6 0,-22.8 0,-45.6 0,-68.4 0,-46.21 0,-92.42 0,-138.62 -0.18,0 -354.29,1.49 -361.43,-0.65l-2.16 -1 -25.43 -281.09 390.04 0.23c110.15,-2.22 222.68,-0.09 333.09,-0.09l313.14 0.01c14.66,0.05 16.26,2.19 19.22,-2.88 -14.03,4.13 -141.32,1.09 -166.67,1.09 -43.38,0 -478.84,-1.86 -499.8,0.42l0 -273.18 691.7 0c-6.33,-4.17 -164.94,-1.79 -170.62,-1.79 -57.76,0 -115.52,0 -173.29,0 -114.95,0 -232.1,2.23 -346.77,-0.08l-692.61 0.22 74.98 833.38c10.64,2.66 428.65,0.84 461.26,0.84 49.29,0 106.11,-2.62 154.45,0.19z"/>
  <path class="fil3" d="M22362.19 4848.13l341.37 0.48 -32.89 358.9 -303.33 81.67c-3.69,3.08 4.56,2.6 -4.25,2.6 0,6.87 -1.39,273.69 0.72,282.26l0.98 2.34 563.72 -155.93 75.94 -847.95 -641.36 0.01c0,46.2 0,92.41 0,138.62 0,22.8 0,45.6 0,68.4 0,15.63 1.88,55.99 -0.9,68.6z"/>
  <path class="fil2" d="M22361.63 5577.73c3.64,0.25 3.16,1.38 3.16,-1.35l-0.98 -2.34c-2.11,-8.57 -0.72,-275.39 -0.72,-282.26 8.81,0 0.56,0.48 4.25,-2.6l-3.23 0.22 -154.2 -40.77c-26.05,-6.66 -51.06,-13.79 -76.74,-20.66l-57.53 -15.39c-3.21,-0.89 -6.11,-1.67 -9.63,-2.51 -1.95,-0.47 -3.2,-0.6 -4.79,-1.21 -5.64,-2.17 -2.35,-0.09 -4.98,-3.15 -4.21,-6.21 -16.37,-192.06 -20.52,-219.15l-276.58 0c-0.68,24.98 38.02,430.17 39.44,433.37l563.05 157.8z"/>
  <path class="fil3" d="M23029.56 4287.04l25.23 -271.67 -691.7 0 0 273.18c20.96,-2.28 456.42,-0.42 499.8,-0.42 25.35,0 152.64,3.04 166.67,-1.09z"/>
  <polygon class="fil1" points="22364.11,5289.4 22367.34,5289.18 22670.67,5207.51 22703.56,4848.61 22362.19,4848.13 "/>
  <path class="fil0" d="M21999.5 4570.86c21.03,0 353.23,1.97 364.61,-1.09l0 -279.77 -390.04 -0.23 25.43 281.09z"/>
 </g>
</svg>
