<?xml version="1.0" encoding="UTF-8"?>
<!DOCTYPE svg PUBLIC "-//W3C//DTD SVG 1.1//EN" "http://www.w3.org/Graphics/SVG/1.1/DTD/svg11.dtd">
<!-- Creator: CorelDRAW -->
<svg xmlns="http://www.w3.org/2000/svg" xml:space="preserve" width="210mm" height="297mm" version="1.1" style="shape-rendering:geometricPrecision; text-rendering:geometricPrecision; image-rendering:optimizeQuality; fill-rule:evenodd; clip-rule:evenodd"
viewBox="0 0 21000 29700"
 xmlns:xlink="http://www.w3.org/1999/xlink"
 xmlns:xodm="http://www.corel.com/coreldraw/odm/2003">
 <defs>
  <style type="text/css">
   <![CDATA[
    .fil0 {fill:#D2B52A}
    .fil2 {fill:#F7F7F7}
    .fil1 {fill:#FAD625}
   ]]>
  </style>
 </defs>
 <g id="Camada_x0020_1">
  <metadata id="CorelCorpID_0Corel-Layer"/>
  <path class="fil0" d="M16279.53 5890.46c49.32,23.51 906.83,270.45 964.12,274.7 41.8,3.09 923.06,-244.37 976.2,-272.44 27.77,-24.85 161.47,-1719.57 174.76,-1830.87 11.35,-94.99 61.51,-547.93 49.66,-617.11l-2381.76 -1.63 217.02 2447.35z"/>
  <path class="fil1" d="M17256.08 5973.19c48.02,-2.27 752.58,-195.64 785.66,-214.6 25.63,-25.32 100.04,-1024.35 101.72,-1047.71 10.93,-152.04 97.48,-981.68 85.9,-1052.36l-968.9 -0.07 -4.38 2314.74z"/>
  <path class="fil2" d="M17362.2 5008.22c80.44,10.5 348.58,-62.54 454.44,-69.64l-0.57 230.76 -462.94 122.12 1.85 282.39c78.88,-12.36 603.36,-146.49 645.18,-173.21l64.01 -775.6 -473.27 50.51c-3.74,-78.04 -12.99,-360.19 6.6,-418.71l500.54 -2.41 17.98 -286.26 -760.29 3.99c-13.68,64.63 0.34,916.61 6.47,1036.06z"/>
  <path class="fil2" d="M16924.66 5217c-74.27,5.9 -359.61,-95.74 -460.87,-114.37l1.11 285.02 695.72 187.13 3.02 -1604.36 -235.54 -1.49 -3.44 1248.07z"/>
 </g>
</svg>
