<?xml version="1.0" encoding="UTF-8"?>
<!DOCTYPE svg PUBLIC "-//W3C//DTD SVG 1.1//EN" "http://www.w3.org/Graphics/SVG/1.1/DTD/svg11.dtd">
<!-- Creator: CorelDRAW -->
<svg xmlns="http://www.w3.org/2000/svg" xml:space="preserve" width="210mm" height="297mm" version="1.1" style="shape-rendering:geometricPrecision; text-rendering:geometricPrecision; image-rendering:optimizeQuality; fill-rule:evenodd; clip-rule:evenodd"
viewBox="0 0 21000 29700"
 xmlns:xlink="http://www.w3.org/1999/xlink"
 xmlns:xodm="http://www.corel.com/coreldraw/odm/2003">
 <defs>
  <style type="text/css">
   <![CDATA[
    .fil0 {fill:#539E43}
   ]]>
  </style>
 </defs>
 <g id="Camada_x0020_1">
  <metadata id="CorelCorpID_0Corel-Layer"/>
  <path class="fil0" d="M733.8 4225.5l0 1164.36c5.75,13.95 3.27,61.84 44.65,112.45 4.41,5.38 7.2,8.68 12.17,14.01 4.54,4.88 8.6,8.48 13.24,12.95 19.93,19.23 100.65,62.97 130.06,79.43 91.62,51.27 178.73,109.81 278.51,140.42 54.95,16.85 130.37,18.09 187.78,5.99 67.37,-14.21 114.26,-45.4 148.6,-87.06 75.48,-91.57 63.99,-218.36 63.99,-329.27 0,-331.3 -1.17,-663.88 0,-995.05 0.07,-18.81 -3.63,-29.44 -17.09,-35.77 -12.34,-5.79 -82.07,-2.92 -101.21,-2.92 -37.9,0 -66.52,-5.84 -66.48,37.36l0.01 1047.45c0,30.15 2.9,73.11 -4.91,100.11 -25.14,86.81 -119.71,110.43 -206.79,74.59 -25,-10.29 -46.26,-23.23 -68.35,-36.4 -64.68,-38.55 -133.43,-76.47 -199.12,-115.07 -39.68,-23.32 -40.13,-16.95 -40.13,-65.13l0 -1099.8c-0.02,-18.85 1.12,-30.51 14.08,-38.83 22.68,-14.56 108.84,-62.91 132.92,-76.54 176.99,-100.14 354.65,-205.87 531.51,-306.44 89.38,-50.83 176.97,-102.53 265.75,-153.22 69.81,-39.86 58.4,-43.72 106.22,-16.69 11.14,6.3 21.88,12.55 33.21,19.15l265.78 153.22c132.62,75.06 266.17,154.64 398.62,229.82 77.49,43.99 155.55,90.73 232.55,134.07 41.82,23.55 43.28,19.07 43.27,62l0 1099.81c0.02,42.58 -3.35,37.19 -44.4,60.89 -88.86,51.3 -175.85,102.78 -265.26,153.7 -88.95,50.66 -176.23,103.06 -265.38,153.6 -133.76,75.83 -265,154.66 -398.02,230.43 -37.52,21.37 -34.67,25.44 -73.46,2.19 -21.75,-13.04 -43.61,-26.05 -65.57,-39.17l-163.9 -97.96c-17.36,-10.65 -21.19,-6.81 -36.78,2.11 -38.46,22.02 -64.58,35.8 -106.84,50.27 -32.67,11.2 -69.7,16.49 -37.24,42.05 8.1,6.37 265.61,158.39 295.43,175.95 45.94,27.05 85.97,56.68 155.34,55.84 72.31,-6.35 80.65,-10.53 136.42,-43.36l193.25 -111.81c51.76,-29.53 102.06,-59.51 153.39,-88.81l307.63 -178.14c51.39,-29.82 102.58,-59.1 154.26,-89.27 32.22,-18.8 130.43,-73.67 153.5,-90.01 36.44,-25.81 62.37,-61.29 77,-105 7.58,-22.65 7.92,-44.82 10.77,-51.42l0 -1161.38 -4.59 -27.63c-10.98,-53.65 -39.76,-96.36 -82.63,-127.99 -12.66,-9.34 -136.68,-80.4 -152.67,-89.56 -101.91,-58.35 -204.05,-118.28 -306,-177.12 -100.15,-57.8 -207.48,-118.45 -305.96,-177.16 -25.64,-15.28 -51.06,-29.63 -77.12,-44.66 -25.61,-14.77 -50.37,-29.45 -76.28,-44.15 -33,-18.72 -85.01,-52.52 -117.98,-62.69 -18.79,-5.8 -46.55,-8.6 -50.43,-10.36l-23.44 0c-4.56,1.46 -29.42,1.82 -52.69,8.44 -17.05,4.85 -28.58,10.11 -42.7,17.52 -26.03,13.67 -51.27,29.68 -77.25,44.53 -153.99,87.97 -308.18,178.52 -461.87,267.42l-384.72 222.76c-57.9,33.05 -98.79,50.31 -134.31,109.22 -27.03,44.85 -24.66,81.23 -28.34,91.73z"/>
  <path class="fil0" d="M2170.68 4270.79c-79.03,4.04 -148.23,9.91 -217,35.8 -134.93,50.79 -215.46,142.74 -212.67,292.42 0.99,53.54 14.48,103.73 44.39,145.1 45.78,63.31 126.4,95.71 202.51,114.43 71.59,17.6 143.88,24.99 219.25,33.26 68.27,7.49 254.51,27.28 298.37,81.44 10.3,12.71 16.13,23.67 17.81,44.78 7.8,98.14 -55.36,143.31 -155.63,160.95 -71.39,12.57 -166.41,12.85 -240.01,6.05 -111.57,-10.3 -200.18,-36.39 -228.85,-151.01 -18.35,-73.34 10.81,-64.08 -125.47,-64.08 -18.18,0 -43.22,-3.89 -55.82,6.64 -14.62,12.23 -11.57,29.05 -10.24,51.63 1.09,18.36 3.67,38.38 7.59,56.08 10.97,49.62 30.51,92.51 60.63,129.29 98,119.68 274.27,146.08 420.74,149.95 204.97,5.42 449.44,-41.88 509.3,-248.62 20.08,-69.36 16.81,-156.7 -12.11,-218.3 -76.4,-162.71 -374.76,-169.39 -558.08,-199.93 -59.59,-9.93 -163.25,-26.42 -188.56,-65.51 -17.4,-26.88 -13.99,-74.93 0.3,-103.21 43.66,-86.37 210.23,-85.9 296.34,-81.26 82.51,4.44 144.19,16.7 193.59,59.53 47.77,41.41 55.83,115.31 62.8,127.01 9.83,16.53 27.87,13.95 49.92,13.95 20.95,0 41.9,0 62.85,0 50.67,0 72.01,5.57 63.54,-57.82 -7.06,-52.79 -21.12,-99.98 -46.98,-144.36 -14.97,-25.69 -37.79,-53.23 -57.64,-69.38 -28.34,-23.04 -40.65,-32.67 -75.76,-49.92 -28.05,-13.77 -60.94,-24.98 -94.02,-33.04 -65.92,-16.08 -159.98,-25.51 -231.09,-21.87z"/>
 </g>
</svg>
