<?xml version="1.0" encoding="UTF-8"?>
<!DOCTYPE svg PUBLIC "-//W3C//DTD SVG 1.1//EN" "http://www.w3.org/Graphics/SVG/1.1/DTD/svg11.dtd">
<!-- Creator: CorelDRAW -->
<svg xmlns="http://www.w3.org/2000/svg" xml:space="preserve" width="210mm" height="297mm" version="1.1" style="shape-rendering:geometricPrecision; text-rendering:geometricPrecision; image-rendering:optimizeQuality; fill-rule:evenodd; clip-rule:evenodd"
viewBox="0 0 21000 29700"
 xmlns:xlink="http://www.w3.org/1999/xlink"
 xmlns:xodm="http://www.corel.com/coreldraw/odm/2003">
 <defs>
  <style type="text/css">
   <![CDATA[
    .fil0 {fill:#61DAFB}
   ]]>
  </style>
 </defs>
 <g id="Camada_x0020_1">
  <metadata id="CorelCorpID_0Corel-Layer"/>
  <path class="fil0" d="M11512.63 6045.1l143.58 0c68.76,-33.27 138.31,-32.14 273.38,-125.56 52.33,-36.2 188.48,-145.74 214.84,-177.72 87.16,97.14 221.6,187.38 344.06,250.68 51.35,26.54 99.92,31.65 143.23,52.6l143.57 0c86.53,-52.68 94.11,-31.51 153.85,-111.95 39.39,-53.06 58.68,-114.87 69.7,-190.25 26.1,-178.61 -13.19,-309.46 -40.17,-473.25 236.38,-47.83 577.13,-222.5 583.73,-459.49 6.85,-246.07 -347.84,-423.79 -583.73,-471.51 29.26,-177.67 105.05,-482.25 -29.53,-663.5 -59.74,-80.44 -67.32,-59.27 -153.85,-111.95l-143.57 0c-68.84,33.31 -138.14,32.06 -273.38,125.55 -61.79,42.71 -176.42,135.93 -213.91,177.73 -24.66,-29.91 -166.16,-145.15 -215.99,-177.04 -178.94,-114.51 -182.08,-82.62 -272.23,-126.24l-143.58 0c-102.15,62.19 -190.61,76.89 -223.54,302.2 -26.28,179.83 12.99,308.29 40.17,473.25 -235.03,47.55 -579.02,223.42 -583.81,459.53 -4.95,244.54 347.95,423.75 583.81,471.47 -29.2,177.23 -105.29,481.93 29.53,663.5 59.74,80.44 67.32,59.27 153.84,111.95zm625.4 -792.06c269.61,0 249.5,17.76 342.71,-135.13 23.53,-38.59 162.89,-273.74 164.87,-309.08 2.15,-38.27 -210.42,-426.38 -262.9,-443.19 -42.06,-13.47 -415.8,-13.51 -468.3,-2.2 -71.1,15.31 -271.12,418.67 -272.09,436.03 -2.36,41.98 133.09,264.75 160.41,310.99 93.57,158.35 77.19,142.58 335.3,142.58zm-771.89 -99.83c18.96,-67.84 126.83,-324.56 127.96,-344.44 1.37,-24.2 -109.28,-286.82 -127.96,-353.68 -178.17,31.81 -492.7,185.52 -497.69,343.56 -5.25,166.17 318.15,322.5 497.69,354.56zm1555.65 0c178.17,-31.81 492.7,-185.52 497.69,-343.56 5.35,-169.51 -317.81,-318.83 -497.69,-355.23 -18.85,69.47 -126.79,324.42 -127.96,345.11 -1.37,24.2 109.28,286.82 127.96,353.68zm-867.73 500.02l-209.96 -264.2c-35.76,-46.36 -120.61,-39.48 -187.87,-49.02 -73.12,-10.36 -138.98,-24.72 -210.53,-38.09 -17.52,122.08 -120.98,560.85 92.14,618.17 185.94,50.01 445.79,-195.76 516.22,-266.86zm179.8 -1698.16c16.46,27.86 28.89,42.56 52.2,65.85l108.45 129.05c100.66,127.89 36.19,88.79 237.51,118.37 61.18,8.99 149.29,21.85 201.75,37.52 69.59,-163.36 93.28,-556.26 -74.67,-614.86 -104.45,-36.44 -239.76,42.87 -303.8,82.64 -90.23,56.01 -156.7,116.09 -221.44,181.43zm-788.16 351.31c71.52,-13.37 137.38,-27.49 210.42,-38.09 205.38,-29.8 129.22,17.71 291.31,-182.66 25,-30.9 22.4,-32.82 54.43,-64.7 23.42,-23.32 36.02,-37.44 52.2,-65.86 -151.5,-152.94 -628.88,-523.23 -649.9,-12.18 -5.79,140.72 23.13,235.21 41.54,363.49zm788.16 1346.85c151.38,152.81 628.89,523.07 649.91,12.18 5.7,-138.85 -25.12,-240.03 -42.21,-363.49 -108.37,21.25 -366.35,46.76 -397.73,87.07 -17.54,22.54 -34.91,51.03 -49.32,69.34 -21.11,26.81 -31.22,35.95 -54.09,64.24l-106.56 130.66zm-95.83 -95.4c50.31,-20.85 60.07,-55.19 89.4,-88.37 23.12,-26.16 62.67,-70.2 74.52,-98.32l-318.3 1.66c15.71,30.11 122.91,156.19 154.38,185.03zm-152.05 -1320.67l312.36 -1.66c-8.24,-26.46 -47.79,-70.5 -70.91,-96.66 -29.33,-33.18 -39.09,-67.52 -89.4,-88.37 -31.77,29.11 -138.4,154.28 -152.05,186.69zm734.71 418.51l85.03 -232.25 -246.09 -43.09c32.64,55.49 127.27,241.84 161.06,275.34zm-1238.68 529.81l246.24 42.13c-24.35,-41.36 -51.28,-91.84 -76.31,-134.05 -24.79,-41.8 -55.39,-111.87 -84.7,-140.93l-85.23 232.85zm4.52 -765.48l79.57 236.09c36.49,-36.87 53.09,-86.78 81.41,-133.97 27.59,-45.98 55.3,-98.57 81.59,-136.2l-242.57 34.08zm1072.3 802.38l242.65 -34.25 -79.66 -235.91c-34.28,33.28 -54.29,88.76 -81.4,133.96 -27.87,46.44 -55.06,98.16 -81.59,136.2z"/>
  <path class="fil0" d="M12070.7 4569.6c-319.59,100.77 -164.03,572.02 154.04,470 294.83,-94.58 169.03,-571.87 -154.04,-470z"/>
 </g>
</svg>
