<?xml version="1.0" encoding="UTF-8"?>
<!DOCTYPE svg PUBLIC "-//W3C//DTD SVG 1.1//EN" "http://www.w3.org/Graphics/SVG/1.1/DTD/svg11.dtd">
<!-- Creator: CorelDRAW -->
<svg xmlns="http://www.w3.org/2000/svg" xml:space="preserve" width="210mm" height="297mm" version="1.1" style="shape-rendering:geometricPrecision; text-rendering:geometricPrecision; image-rendering:optimizeQuality; fill-rule:evenodd; clip-rule:evenodd"
viewBox="0 0 21000 29700"
 xmlns:xlink="http://www.w3.org/1999/xlink"
 xmlns:xodm="http://www.corel.com/coreldraw/odm/2003">
 <defs>
  <style type="text/css">
   <![CDATA[
    .fil1 {fill:url(#id0);fill-rule:nonzero}
    .fil0 {fill:url(#id1);fill-rule:nonzero}
   ]]>
  </style>
  <linearGradient id="id0" gradientUnits="userSpaceOnUse" x1="-3047.73" y1="3518.99" x2="-3001.41" y2="5423.8">
   <stop offset="0" style="stop-opacity:1; stop-color:#FFEA83"/>
   <stop offset="0.0784314" style="stop-opacity:1; stop-color:#FFDD35"/>
   <stop offset="1" style="stop-opacity:1; stop-color:#FFA800"/>
  </linearGradient>
  <linearGradient id="id1" gradientUnits="userSpaceOnUse" x1="-4334.88" y1="3755.24" x2="-3016.76" y2="5976.31">
   <stop offset="0" style="stop-opacity:1; stop-color:#41D1FF"/>
   <stop offset="1" style="stop-opacity:1; stop-color:#BD34FE"/>
  </linearGradient>
 </defs>
 <g id="Camada_x0020_1">
  <metadata id="CorelCorpID_0Corel-Layer"/>
  <path class="fil0" d="M-1818.09 3832.82l-1294.63 2315.09c-26.77,47.74 -95.34,48.02 -122.52,0.55l-1320.43 -2315.37c-29.53,-51.88 14.76,-114.66 73.54,-104.17l1296.01 231.66c8.28,1.52 16.69,1.52 24.97,0l1268.96 -231.24c58.51,-10.77 103.07,51.6 74.1,103.48l0 0z"/>
  <path class="fil1" d="M-2568.68 3425.1l-958.1 187.78c-15.73,3.04 -27.46,16.42 -28.43,32.43l-58.91 995.35c-1.38,23.46 20.14,41.67 43.05,36.43l266.7 -61.54c24.98,-5.79 47.47,16.28 42.36,41.4l-79.2 387.85c-5.38,26.07 19.18,48.43 44.71,40.7l164.74 -50.09c25.53,-7.72 50.09,14.63 44.7,40.84l-125.97 609.58c-7.86,38.08 42.78,58.92 64.02,26.22l14.08 -21.8 780.8 -1558.03c13.11,-26.07 -9.52,-55.88 -38.08,-50.36l-274.57 52.99c-25.8,4.96 -47.74,-19.05 -40.43,-44.29l179.23 -621.31c7.18,-25.11 -14.9,-49.26 -40.7,-44.15l0 0z"/>
 </g>
</svg>
